<mxfile host="app.diagrams.net" agent="Mozilla/5.0 (X11; Linux x86_64) AppleWebKit/537.36 (KHTML, like Gecko) Chrome/136.0.0.0 Safari/537.36" version="28.0.7">
  <diagram name="Page-1" id="9rfbdSOTHSyTImtIh42u">
    <mxGraphModel dx="742" dy="450" grid="1" gridSize="10" guides="1" tooltips="1" connect="1" arrows="1" fold="1" page="1" pageScale="1" pageWidth="827" pageHeight="1169" math="0" shadow="0">
      <root>
        <mxCell id="0" />
        <mxCell id="1" parent="0" />
        <mxCell id="29P_ZHL3aKITBRRaT1-l-2" value="C programs" style="shape=image;verticalLabelPosition=bottom;labelBackgroundColor=default;verticalAlign=top;aspect=fixed;imageAspect=0;image=data:image/png,iVBORw0KGgoAAAANSUhEUgAAAxUAAAJQCAYAAAD4/0lhAAAABHNCSVQICAgIfAhkiAAAABl0RVh0U29mdHdhcmUAZ25vbWUtc2NyZWVuc2hvdO8Dvz4AAAA9aVRYdENyZWF0aW9uIFRpbWUAAAAAADIwMjXlubQwN+aciDI45pelIOaYn+acn+S4gCAxNeaXtjQ55YiGMDTnp5J8txr8AAAgAElEQVR4nOzdeXhU1f348XdmzWSGIZlsAyEhkBCSgITFALJUkMpSxQ03rF/8KVq1Wpe6VKu11qpdrHVrXepWab+KVdyAr0BFUCQKYYtIEiCBkAUSQrbJTCaZLb8/ksnGJEy2SYDP63l4Hma799ybmXvP55zPOSdo5MiRjQghhBBCCCFEDykGugBCCCGEEEKI05sEFUIIIYQQQohekaBCCCGEEEII0SsSVAghhBBCCCF6RYIKIYQQQgghRK9IUCGEEEIIIYToFQkqhBBCCCGEEL0iQYUQQgghhBCiVySoEEIIIYQQQvSKBBVCCCGEEEKIXpGgQgghhBBCCNErElQIIYQQQgghekWCCiGEEEIIIUSvSFAhhBBCCCGE6BUJKoQQQgghhBC9IkGFEEIIIYQQolckqBBCCCGEEEL0igQVQgghhBBCiF6RoEIIIYQQQgjRKxJUCCGEEEIIIXpFggohhBBCCCFEr0hQIYQQQgghhOgVCSqEEEIIIYQQvSJBhRBCCCGEEKJXJKgQQgghhBBC9IpqoAsghC+6Gx8jaVF4p6+7t77GDy9k983Ogqcz6u2lGJWAu5ij9z5DeWnfbFoIMXiNW1bGR9fVo0XFuqeHc9vXQQNdJHE20E9n1BvN9xxf+vQ+FE7kHx5jeELTI8s/7ufwF86+2LAYbJROHvn7MW6Jb4TyIdx2m4l1tsAWQXoqhBB9LJornl3L2rX/5vYJA10WIToRbeWRS+vRAg25Rv4iAYUQwg8JN73K2rVrefH62IEuSntuNf94V085QKSV+691oA1wEU7DngoN4Us/JTGx6ZF1443sy5Bm5R5TzGT0vY8SGQJ4Sjn29o0UHh3oQoFz3xbKPEPbPadOno4pQTdAJRpA6lRiX7kVkxGggvJHnuDowYEulBCns0YWLqthhh5AxbqVBvIGukjNtDP+xsR5Tc3Knrzn2fneejwDXKbT2aA8n45iqtduwt62p0IRTdiiVDQDVqiBoibs4b8QN6npUd27T3Dwk4qBLdJprHyrkfcP2bhzdCOJF1ezbE0Ur5cFbv+nYVAhzgau7Zso3d7+Od0NE87OoEII0bdirfxitqvp/4eG8I9M6aUQAeQspurfxe2fC56Obn4qms5SooTwh1vNO5+EsOyXNow6Oz+7toH3X9BiCdDuJagQov47Cm7OQqEE3C7cAc5BPH1Fc/GDd5Pww5u88X/5+HPaNMNn8D+3zsf53tOsyHX0ewmFOFkjC6+yME4DoCBjvZ597oEukxD9pYLy3z1EZXMXiMcm4yn8lXD14ywP28wrKzZTZPfjA7oE5t+0nPTSV3hqVVG/l68z5ZsNbLrRxqVhEDnHwjXvRvJ6eWD2LWMqhAAabXbcFjtuueD6TTPhCq44P435d7zIa8/ezvzRXXTcK6NJv/5xXv37I1xxbjoXXz2HsMAVVYhWYXaumdncS2HT8elmaRoWZ7j65vubxU6jBND+0c/gisvSSbvkAV589WmWz47uIjVNQ+z5y3n61Re5+ydpzLj8WtIHMqnCEcz7X6ub/q+zc83FgavXSFAhhOgRx/dv8vCT75NR7CAs+WLufv4tnr5lBrHtLqYawiZcwSMvv8rjS9OJporc/3uBh1/YQNVAFVyc1RJ/bG0eSwGWnXo+rxnY8gghBiFbBi8/+gwf7S6DiDSueOhVXn3sGtIj2ocWmuh0lv3uVV588ArSIhyU7fiIZx59gUx/ejb60c5NITT1lTSSOMfK3AC1nQSNHDmysb82rghNJ3zKXEzxKehNJtQaDXgcuOsrqa8poq44m5oDm6kqKO1k4JSZYTe9TVxMz/bfsP0h9qzPOkUhU4i97a8MDwdwUPHBVeTlOgA9unFXMmziTIzmaLTBGjwuG87qPKwHt3Jiz5dUV7ZN+OjmAPLEBzl36VyUANWr2ff3l7H6NXpMjy5pIZHj0xkyLA6dMQylAjyOKhoqCrEWbOVE1pdYKnwko2gWMPaBewjtUSjZ9twMDN0Nj5F0UdM0sz2eUlaZRMzf7iCis9lqezmVnyp5OuE/TsOYMAJtlBGlGhqdTjyWShpKS7HlZGP5LgtrYSdXnLbT23abk6rnHqbw2wD3tijDSFu8jOVXzydhKDjKcilSJpMQYaMotxJTcix6HJRt+5g33lpJRrF/3yHNwuV8/kBy04P8ddx4+0YK3aAxJ3LplTP40dR44iKHYFC6sNZYKM3L4+svt/P5l0eo7KI1ThOTzKJLJzN74khGDjdi0qnAbqf06BH2bd/FJx/sJrvTiqaK2Y89xuPnN0VO1i9XcNVTezn1EemY97uH+fWsps9V/vdNfvrH3C4/17ty+thef5xPpY7E82dw2QUpjEuMwjxUh0YDDrsda2UlRwpLyN6dy9df7CWvO2Xt42Nv5eL+F49yZ1IjoGDTMyO4cWMPx1NoYgmdtJiIpIkYIqJRh2hQ4MDjsOGsKcVWmo0lbyuVB3JwunxvQj/vbcbPMPds/2Ur+f4f79B13UWD8ZJ3SUlriqLa3hOVMQsYPm0BYbFxaA16FB4HTmsRtiOZnPh+/Un35W4NeG57r/HkU/jKnRyr9PO4jGmEp83FNDoVfUQ06mANCo8Dt7UM29E9VOdu4kRODk4fO+//89mP+mRqczVD7/8D8VPVnb6jN1PKBpmTCFswnaHj4gmJNKLSq8HpxG234Cgrw553GOvOnVR/X4HvimX76W27y7HhOXLeKOjZh3tMQ/S0y7l52RJmxOvBXkRumYnkeD1Vh3JxDEsmWge2Q5tZ9dYbfLy7qovreiLTX/4vF45telTwwlT+9ZkFw7m3MHvJQhJTEwk1aHFZyzmRl0HO2hV89+UuOrl8dE3p4Im3jrEsGkDF+7+O4Ve7erKh7umnMRUa9FMfZcy8dLQd96DQoDSY0RvM6GPSiZx2A/aMX/L9xpz+KUpPBKcwbMlviBvdPkFDodGjjUpDG5VGWJiVzFWbAlosxfDFxC++gcgo/cmvBYehiwlDF5NG5Hk3YNvxHDnrtyI9nQGijibs1uXE/iiajlWUILUaZXg0IeHRhIxLI/LKy6j880MU7RiQkvY9dxVZn7zAXf9dw5zrlrPsJ2kkaAD0xCbrsR3czJtvvcFH3/e+b8J8wVX84ZdTiWvXG6LCYDKROHUqiVNi0OY9z1uHfXxYOYRpy6/j/isTMXUM2nQ6zAnJmBOSmbf4fD7965u8+FWtj4242PZVLtbzJ2EADFPOYZpuL1tOVRMxJDN7orfQtez+Kq/zG0+flNM/vTqf5nO467GruHTsyf38Gp0OU0wMppgYJp03lZ/enMtfrn3z1L0C/X3sw+3MTWiu7jiCydjVs4BCGX8DSZdfi9HQ8RUNimAN2uAwtNEpmNKWEFfyDt+/tZKGHu2pP4RhnPd7kmYk0O4UKzSoQxMIDU0gdFQY+1563s+Grj6iMBM65x7ip6X5rjeExmIMjcWYupgRliwKVz5EWQBntTm7qdFdchPx16Si6RivqNUo1eHojOHoxqRiWnQRUWufY/87BQNR0H7goGzb+zy1Yw3JC27mluvmkxzf9ErY6GQcJ3JZ88bLrFjn37jC9oYy4ua3Wbp0HMFtnlUZIjFPvBTzxEtJv/BZ3nvib5R2N9p1a8jIUrFsvgtwccHsBrS7tP1+HeqXoEI94VHGLkin9bvnwFlRhL3WigcNqiFmQsLCUDS3mCtUnWWq1WLZuZKiQ+22jn7cEkympkfOQ6spL7H5rDy7i3twxVHEErnk98SNbl9x93hoKe9AUCb+nJQli9G3PVUeGw0nSnHWQ1CwnmCTGaUKUOjRj0xEw9b2rS6uPMq/Xkltu2nsYjFNm4leBWDDmrWOKouvVowG6o+fAQNr3RXUfr4BV9vKgGIEoZektvtRd48O4y23EvejNt0fTjuOkjIcNgdoQlCGhhMcqWsOOFQEqdWAj/PsPEzlxxuoa/vLVIQzdNEUdGoAO3Vfb8His9XPSX3hAI4JseWTlZFBzsQUouObv6juMrJ3bGVrbu8DCsPUy3nkoamY235/3YA/vTpKE4seu5P7Zw1p86SLysIySm0uNMYo4mJ0TTmzhhgufeRONO7n+cs3J1/JHdv3sq1mEvOGAkOTmT1FxZZvum5LMkw9h0ne71xlDht3dvL+PiznqfTqfGpGctuT13HpqDZfVGslhSWVVNSCdogOkzka89Dm15WqU0+VGYBjj5xcT6L3+Iq1ZPRkSpTwa0m65lqMbQ7IYymirroSl0uDKjgMbYQZdfPrCpW20zxjx+E1FLnbRyaqmAUM8zZoVWZydF++78Yhyx4/esg60qCf/XvGzkhoXyYPA5sMrYolcsmfGJ3UviHPYy3FbqmiEQNKYzQ6Q9NJVRhTGBKmoays/RkI/PkcbJw0fLuB0qNta/46QmbPxtj5WrKnpPrxTYy+PrVNhdGJq7SM+oq6pjpdqAmd2UhQ829L0WlHSR3WTRso3dv2OTW66XMZ2tzB5Nq3hYqDdp89He4D/nZ39QO3jUM7M9g+OY3R53nHVzgoy9lKxo6eBBQQfP6fWDqxOaBwlHOi6Dj1GAmNjaX5q45h6n0sfczC2w+voLqb28/4QUvDfBdaIHJ8PeOUWnb1c0tz3wcVijSGnd8aULgLVpK3+j2qqzv8XFVmDGMXEDVtASc19rSwYct6p8MfS0P4sNagouHwRxT14ToV6pRbGDlaD54qLLtXcWznVizlpXg8QHAshoSZRE27BFOf7dEPpiUkXd4moHAUUbHldYp2ZNLQ9rSqzBjGXUzMrMWE+tqOJ5/KLfntn1PMJHhSc1DhqaV2xxscHQTrVPSfCiyfrW0/vVrwdEIuSiW4pzmHcRdgnu29Yjuxb3iPwvd2Ut/xKhM+gqGzpxNxYVrn23KXUfOftbRr0FWnopnjDSrqsK1fS9kgW6dCMzydy29azpLzmlKdHA6a0mAcYaQvfYS0C7PY8O83WfHfnl18UcRw/e3nYFaCo3AvH7yfwRffFlBY4wKlClNiIrPnzeSyBUN8fFhF6vLl3NVSWXVR+OVqXvxHBrvbzIihiTuHm355FVedo2uq4N59FbuzV7Cx433MnsOWnXbmXaADdEyblYjmm65SmVRMm5XYcp2r3L6X3T7f3Mfl7EqvzieYLlrYGlA4jrPxlXd5cW0J1g43LENCMosWzeQnF5zqVhOIY29kxoSGlsWgLIc15HX7BqvHdP6VrQGFJZOCj5+jrLBj0KxHG38BUVMWEOnzYtzEeWgVRw+1f047I72lEuyp3ErJ5j5cVyF0AfGTE1DgoCFvNSXbNlFdmN+UnqUKQzdiKmGTF2PuYcpxz+gxzn+iXUDhLFjNkY3vUXG0/XlVhs8katZSYsb7XnQs4OdzEKrfuoH6rW2fCSfynF4EFeokoi5vDSjcuRsofHkDltIODVjB4YRMnUL4gtmEdLoxO/YNazukmKkJG9kaVDiyNlE62Nap0MUyZ+lyli1OJ1oDDrsDdBocdoidvZynz72YzNVv8OZ/MvybJaqZeeJkoIET657mg1dWcMLa/IJhMpPu/BMLL0xERVNgseiiTby3tnszSlkOaChy25oaUobXMyNiKLv6uXev74MKczqhxub/u7I48vE7VFt9vM9VinXfO1j3vYey829ggGkwJqeBI5+j7/+KooIO1Z/6Iqz7VmLdt5pjUb5vtn0vjPALl2L0NqPX51D07m84WuKjauYqxZr1BvtzNhE+Ka5neXii21STk9B5A5LCTRS+vZN6X5WVimJqPvmQmtVrUQafIbNM6ROY35zyFKYBW8FmXnn5IzQ3vcjy5Co2PPNbciYs5+bFaVx8z4vMvWQzK996g492d7PnYtQ5TAMqv/2A+57YTmHbSrnbReX+XD7dn8vnH0Vh7nhRH3U+d18e1dyy5KJw1Zv84uU8Ol6WHIV7efVBC/ztNq5KUIHpHK6/IoaNb5R0eGdzCtQF3hSoyUzS5LKts6hCl8LsKa2pT9s6S33q83J2oTfnEx3Tpsa39DyU/vdj/vJZic9jsubn8sHfcvngXzoMvu4DgTx2pYvxcd7qZBB5BerupwIoUgkd5e3FtlHx3z9RVugrTLbRULCaooLVlIScnK46ULSJM9EqbFg2/ob9GTntK9euKuwF67EXrKcsKpaA1byHLyV+Uus4iIZ9f2bfJ5t8jplwV2zl2KdbObH3WkIbTv9+hdNCfCpDIpv/7zzA0RfWYvFV56+voO7rDdR9vQllF4H0aUUZRvJFy7jl6vkkhwFVuax5+WUyYh/g6SWxFK1+mJfLFvDzZfNJv/oR0i/MZc27r7Pi/3L9bjyzfvtb/vXM++2vddZd7H7mdghbxcXnGgEjiVfejHndbyntTkPIUTV59ZCoB5ROxo9thLL+XZOn7zs8jWY03q1aC7HXneoDDtx1g+jioHBg2fTkyQFFOzbsxwO0inf4JQxL9N6UHFi++rPvgKItRz4V2zb5Sq4R/UAT0RpgukuKfQcUbbntZ8RaGJrka3j29Re5+7I0wtxFZLzza2696xnW7GtzebTns/n1X3PrPS+wJteGfvQclj/5Fq/+YgbdrmqVbucvf+xQAe7AUXqcwnbdPCqmXTmTRG8NuHArz7xxcmW1dQNHeGvF3pbX4+ZOItVHD5Zj+y62efdjSmTelM7bZzTnTWpNfSrPYcseX+F+/5SzSz06n4ByCMPCW4/3WJ7vgKKdGvtJvRitAnTsSieJw71JFQqOl/SgazLYjNrbwOMppa7s1D9kT51t8LSMK8CZ/XcOdAwoOnAfLwrQeDw9pukL0XnrDNXrObTGd0DRlvPQSsq7EUOLXogwtqayV5dRf8ocHCfu6jOg9qFLZ/mLr/HsrfNJDrOR/99XuO+O+3jlv/mt1ya3jdx1L3DX7ffx5pdF2MKSufiOZ3n7pWWk+bM0ujuPzDff932tc+ex+5+fcML7OG4u56Rqfb2zi+2rKCr3BhEeYkf0/6+674MKV5vbS4gZbc8T1QeGZRMluwIUMPhBl5qOviVI28qxPYOnbKJJY5vrpzLKdOrc8TOE40guefVNg9gev+MunvpPFlWdXLNshzbwyn03ct9rm8mvcVJ6MKebaVAusj/byLauWrt90SQye2prSk32mq/IPkUN2LF9L7u9+4lMZJKvVBBHHhu3ewcJD2HSrMRO/u4dU592+0596q9ydqqH5xPA7WqXdjlsRFQPNtJGoI49wk1USxyh5HhP0rNdjtYWfIWJ4LDT7NfuKaL8m02DZwIPzURMCa3NC9adq7AMojZGQfuhf0PC0Q6ejrf+Zc8mv8iBrWAzbz58K3c9v4bcziaaqMnlo2dv49ZHV5BRbMNRkEeeP9/jgnXkFnbx+oH15LUEz7HET0ns1iHgVnK8pcyNRJnddDMs6ba+DyqO52PzXnQ16cRetAT9oElvOjXn4a1YBk3ekJ6QEa25o+7CTLngDkL1h8taB5UlLCD26iRUnc/od+awZ/Hmvddz2xMryCzz54tpI/ezZ7jr9ht5Zl0305/cJXz3TQ9qgbHxjBvq3UYZu3f5MVuQu4xCb96p0sTIOF9vcrH7qxy8JTJNPYdJvuqXuhTmtU19+rqT1Kd+K2dnn+3h+QSgkrwjreUz/+Ry7jq/F8F0gI5da3S3TtXsVmDpySBtVx51LTfpMMLn30O4j9n4Bq2q7VQGaGVdv0SmtQxIxVNEVd7ArUIsOnGkCLs3Cg1OxXzbXHRnSnpTl2xsfulWbrzrGb9nLqza/T5P/fxGbn01w69Gs/pD+zjRVYTv3knR4dYkzYhRid0cs6DAYmtNdzIa+785oe/HVFi+5PiBpRiTmy602uSbGZ+0FHvhHqoLsrCWZFNbnI9zkFaO7aV5A12EVgozIW1awuqP5w2ebnTRonH7FqoqUjGFA+gwXHkH4xZVULfvIJYDB7AfKMCWX4H7DOgR7shR04M8rhpb9wdr15SR14NOOs2IqDazG+lIXHQxt52y0UBNondcGDpMJh34mL3esXMv2yqnssgEmFKYPVHFtu3tN65pO+tT+V42fh/4cvrUw/PptXvNLgovPJ84JaCL4dLHHmZReQm79+Sxb+8RsrML2He41q/ZdAJ27CGNbWZ4C6K+J79HTz7Hd+Zgnp+CAlCEzyXx1pmMLMuhumAPtcU5WItzsA/S1h9PeT72QXQTUYSbUXubNl2F1A/g5D6iE+U7qdy9AMO5TY0jmnMvI2nSAupzD1CbcxDbwcPYDhTjOgNSek9i68G9ym3D5ueHqktPHURXlx0HmhqXVeGxGKBbs0DVO1qDCq2mES3067Sy/TClbBUVnz/HkLAHiY72zqmnRxc/E138zOb3OHAez6H6h9WUbNtKw6DpGXDg8vfbEBAmlG36qtw2ueIOSvXZFP9tA8H3z6dlTKY+nJCp4YRMnd702G2n/mA21V98yYmviwdP+sHpoqaWnswHohmqa21BV5qYtuR8pnVzG1p1J5dJRx5btteyaOEQYAjTzo9Hs71tT4SKabOSW1KfSr/dy75O6pr9Wk5feng+vRw563jqtWj+cGtyy3oSmsgYpl0Yw7QLm99krSRvz17+78Ov+HRv570PAT/2XmrI/DOHYv7A6HHm5q5+DeroNCKj04hsLrjHko/l4CaOZazG0nHmwwHkrrMOqoYpZbChNV2irhLHYCqcaGah6h8rCIm6iYi45i54pY7gcWkEj0ujaQy3E1fJYSxbv6FsTRaO+gEs7mnEVXuq7tIGXHVtQoBgIyolDOYKRP/MTG3dSsFbt5KzYT3VFb4GqWlQR6URecGjTLj1QcIHUVda4yD7Y7VdG8MzyMomWjXuW8vBe5+j6PNs7L4GqSl1BCdPwXznAyQ/PJvgMzo9qoqt7zzFU398gQ1H+miTHmeP5pDX9HSaYL90SIGaMolxbXOA2s36VNn5rE/0dzl96OH5bOUib9Wb3PiLd/ngmyNU+uokMJhInHU+dz3/AC/9v5GdTh0esGOvC6K1rtNIcE/H+3lKqfjoVr7/YCXlBaW4fVSEFcYEQqfcTMqtfyUuMezkNwwQj2vwBDgA7VYKlYBi8KrOpuThP5D/7++wlPhaQ0KNKiYJ09U3kfznZYT1cFHz00Xpl6/w1B+f4s3NvZuf1eU5dfTlcrcJKpTd7wkI1rT+tRocQafn4ncAuEqxbHsey7bnURgSCIlLZciIFIyjpmKM0rdEMwrTXEYvKaTuzZX+dtyfGfwK5xxN496bx6QogodAz2b5F4FQXUDl269R+TYo4+LRJ40iJDkJ44Qx6EJbowjVpCsZeX0RB94u8LnAz+nPQdn3GQyGxW4dDhcOaGoJL83g/mUfs7sPg3PHnt2tKVCRKcybALubV0rXTD2Had6xAqW5bNnb2Vb6v5z9xbp/N6/+djevKnWYk0YyaUI8485JZNLEkZhbFtrWkfo/N3DX4Wd4+isfaWQBOvYGixKLd3E/pQdjr4ZCOGjIfYdDue9wSGNGPyIFQ0wKQ+LTCY0zo/Re3zUJDLv8V9hfe4jynozhOMN52uZBazQDuv6eOAVnBdbP3sP62XsEhUejS05CnzQKw7hUhsTpWuLDIPMUYu8uxf7ohlPPhHiashVkkVHQ++2oNEOBrgc5BWvbpKs4G7q5VIAHo761lmGx9H8LTkD6jD3WfKzZ+VizV3MMUA5fTOzFNxAd3XRVVwy/hOj4lRQUBKI0/agbLS0KtYFTzhbsKcNZB96V7LSh0YDM/nQ6cBcWYCkswPLFJkrREfyjBcQsm4uhOQ88+EcXYPzPW/RkSILwn7XcghWaFqs06DD0ddexI4+N39ay6KLmFKgfJaLZkYfjpNSnXV1WlPu9nP3Nbac0J5fPc3L5/H1AZ2L2NZdz13Xe9KghzL5kEqavMuiYxBmwYz+h5LgbxikB3ERFAbl9sF1HKbZDpdgObaJsC2BMI/rCe4hLbU6PCk4jenIC5ZvzT7GhM4jG4FeA4LZWti7i7p0t8pTT0IuB1lhRRt3WMuq2bqEcUI6ZjvmWy4iIb2pJCEqYTfi4DZR0MoZMNDGERwFdjePVEhw2tPVhraWLqbl9ULqJavl4EMdLlf3eUzEgDQPuo6spWPEcFS3TGYahH96N/rJB2k3a6GltdQnSdN0Mpg41+XHyK7GVt9Y6tSNS+mE6sA7d4f27LkrvuFtjdIXidMofslP/9Sccem5La/qFfgR634vCnlqgU2VOZ3klHPF+xXUxjOnpOe/Cvq/3tpsFapwG0CV2SH06RR5YAMoZUPZKtvzzTe77V+saFprE+PbpYV6BOna3mryjbeZsj+6nqM2SRdmqhynIa71264Yl+v2zHaS3t3apUwqVoevjMUWj9ad2cbzNwHFFIkNH9P0UvYP1fJ7E7aSxTWEVp9Fsxe6D31Hy5HtUtYwgNhKS1MMlvAM3PGrAGWIT6ToLM4qImMiWR9bSPLo1XEXpIjaydW2eouL+rzwMXG9jfSZVR1svUspg//uiG109+1z/cuCqa72JBJu6CpLCMMb5c+d0YM3b09poZ76A8OheFLGTfXi8dXXFEFTawXslc1paUyeCwkyn3bWn8UA2dS0XXTVKXVfvbsPjwtMyTCMEZWfJ6eJklbnsPtz8f2UUs+d1azEHvzi+38s2bw92ZDKzU0EzZXJr6lPJXr7IHvhyDoTC7Xmtfasane9pZwN17G4VPxR4b3mNxMY7+3HO9lKqD7VOQK/ws+UewNPQuniIQnOKynsAuW1tBnkbuw4atLGp/p3b6j1UtazupSf0nJl9fryD9XyezI7be4tTGlH1sE4+YCzZ1Oa1jidUBPt7gwOPs2efO92pxp7HiK4O1zCDUS1LUzRQmv1D93Yw3EmiN2pxq/lhf/+3Gg9gCmM02qGttxin1d+ZjRw01La+VxudOmguEvYTralJyph0DJ3VesMXEBXvX+Xdk7eeSu81URHL8B8v8a8FKFjv3x/XU0nrNVdPyLA+j1r6jKuotCVssSUAACAASURBVDWfMD4J4+l20dWHo/LGwG47Tn9zrN0VOFqCER26+MH7Nxp8Ktn439YB0nEXXcxV3VjPQaPxI3R15LHx25a+Cqadn9w+9em7vWSfslE8AOUcABqzsSmtCcDaWdd9oI49iIwftC3d/8YEB4n9ePPQhrYO0PbUVfqd0eWubfPeiAT0g6Sdx3OikAZvVBE6EWNn489VaURPTPBzq/lU7Gld3VuZvIzYeH8aCvUo/Twvg/V8nsRZjP2o94ER48T4ASxMDyhNaCJaMwhcfi8E48RR0fpebfyIQVOn63dD55J+YecNzKELribRG3Q4dpK7vXuLzESmNBDrPZllwWSc6PLtfaLPgwrlhAcZd+kNmKK7vjBo027B7K0beYqwHvF/MSx7cX7LRUIx+gpikwbH7BrOouzWrtzQucRO9XFhDU4j9rKlnQccHTkyKdma1XK8ytE3k3LZYnSdXhj16Mbdw7gli/1shSui9ljrudefewPhoYP0qpuThcVbuQ5OZdjy2T2fwaUPGW++l/jrp6ML7yoly4jx+rkYvW+pPYy1q5U026nAdrj1oqubd9EZP7tGXypdu45PvefakMhNf1jGpWO7/gGaxp7DTx+5h/995By/FnXb/VVuS4u8edZibjqvNfVpyyb/psAKRDn7hHIkN/1pOXddnthmMLYPhpHc9NNzWoIrx/489nVSsw7UsZfvCibPW4bh9cwwdvl2Hztdwpif3kN0YmyXN09F9LXETvD+SB1YC3P8T8M5mo/N23oSMpOYWWmDo5JVkYXVO95BEYv5xwt83GPCCF1wD9Gmk17oVMPu9yj3xuQKM9FX/Z7Y0V3c0w1pDLvmOUaO9vOvPljP50ksWHa1Tt6hmXsVwyd19wva95RzljHm7vkMTei6B0Ez9yIi4r2PyrDt839mgvoDrdOsB427APPUgT/uwNCS+P/+yLmjTv4lqRLuZPGyyS0ZGdZv/0NONxeunDLe0fIbLc8K7vT625f6vnlLZcIwYS5jJlyL+3gWlXl7qC0toqG2Erdbgzo8EePYBUQlx7b8sN2HVlPajaliPHnrqbTMJNJI00Xomn8SWpKF9UQlrjZD4x0FKzmaHcCBzUc3caJ8CbHRABqM8/7E+GHrKD+Yj9PVNI1uxKS5GAwO7IX5aOIS/Lq4NWx/nsMj/0pictOFVjvu54wfuYCq7zdRVVKIs94BGhPayBRCx13QFNCVrfS72NY9X2KftASdAjDOJPH2fzKsIJs6ixVPy8QBDmp3vEzF8e6dkj5Vn035hgLCro4nCFCdeyVjX5mL/WgF7paMOBfWj1+jzNcAschUIhcknXzOldEEe59UGjFechnKkwYLOrF/s5aago7Pq2FINEPnL2XoRZdRfzCb2h8OYy+ooMFSR6MmBE3sKIbOmk1Yy0XZSd2GL7F2Y/Gtuk07qZ87t6mc4WnEPft7InMOY6+0t6avYaduwydUnVTGs5zjCG/9eR2TnllIog405nO466XHuGz7br7YXkBheS1WtwqDycSYsfGkTkxmUlzz3+pbP/exdxfbSmdwqRkwRdHS0F6yl68PDKJy9hHDiGQuvTOZS5dXkr0zl93ZJRwsrKSi2ok21Ejc2GR+vHAyqZHNtxj3cT7/cC/WzjYYqGM/qmNTfhDjkhpB08CMyY28vrE7KQFqtPELiB+9gDhrPtUH9mAtzsdeU4nTCcohZvQj5xI9MY2WTFLLVo5ldeM+ZP2S44eWYkzSAxoMM//IpJQcao6VNl3rvaq3UpSRGbjx/K4sju+vInJK031InXQP45anUboni3q7g6AhCYSlLSQ8Wo+nJAfbsBT0/jRbOjIpXL0Kw9IlTb0IwSkM/+k/CcvbxIkDWdRVVeLyaNAMjUMfP5Pw1BS0KgcVWX6We7CeTx8cX35J1U9uwhQKBI8g8uHHCCssob62TTnLd1L08ncnTwmtjGboknPRaTo2bqnQt+nVD06/CPNJjVJO3PnfUf6tj9VrNEMImTmF+JkX4S48QM3eg9gOF+OoqGuq05ljMEw9D9O50a11ut1fcqIb8xI07vyOmuq0puNWRhNx/2MY8w9iK7G0ubc7ce3bRNnW3qywM7i47A2ohs5g0fNrGLX2P+zdm0c9UUScs4D0S+YS4a0yWDPY8uan3RxP4WDueG/lQMWXGdp+H6TdtKd+pIxKIzLKuziKb57j68lbvZpuLW7qyOTI2tUYlnhb7DVoY9LRdkjFbXBvCmxQQT5lX6wnaumC5hQlPfrUJehT27/LXbCC/MwEUuL87SIupeLjX6G49Anim2cUURgSCJ+RQJ9kAB1dwaGvU0mek9J0UVCFoU+cSfu+JgeqQ29QcXxg5zmv/3gFR2LuYOTM8KYx5fpwdGPangUn7k1q8PWNikol4pLZp2jVNGL48Vwfc+o7qSncQE1BF9/U5rUogpOndLkHx7fvceTjbk64enAtRatHMfqy+Ka/kdqIbkIa7duOnFTtXUtVV2U8SzlyNnLfo2r+8Mg8Uk2AUkfceTO46bwZfbMD9xG2fFvJpZe3b6It/Ga3H6lPASxnX9OZSJ01g9RZXbzHXcvu197l1T1dT4YYmGNX8cmWYG5JsqPFw5SZ9Rg36ujJbK8KQwKmyQmYJnfxpvocij7+O9Xdqg1UUbH+dcKift7Sa6w0pWAypbR/W1kVZRmZAZyK3YH169epHPsgpuYLpHr4XGKHz23/Nksmh9ZsJeKWlJM30QlP4RvkfADJly/BEAKgQZe4gNjEBX1Q7sF6Pn2wZFH817VofnURBj2AGlVcfPv7UUkBCl8zpCnMDL14PmGn6L3XTJpL9KSTn3dtPug7qGhDGZeEKS6JrjqiGgu3UPjKd92b+rQ+m6P/2ELIvd41nNRoElLRdKgiOTw7zqigoviTZ6n/8a9Jjkwk+Zpfk3yNjzc5itj914fYUdK9bWvH1DHDmw1UFsI6f4PwXlKGhoY+3pcbbGyw40GHUheKpvMcHagvpXr7yxz8dCXWHvyKGyszKd93AGeQBoV6CCq1rumH1oa75AtK809ReQuKZOi5CxgSAuDGnv0BlSd63lbRWPUdVZWRGEYmclKDgceGddfLHPh0NXXGmQw/Z1RTF3r9AcozM3F0tWiBx0JdzudUndCgDh+J1qDxPVGTqwpb7qcc2fAhtTZ/K5duHIXrKS+w0KjWoNAMQaXREBTU/j29PTd9otFOw7YMaspAaTSg1mlRtFs9y0PD9o1UH/GRbBCVSuSckT3s+u5sux7cdW6C1MEoh+pRaTvfemP5ASr+s4Ij/8rB1e0FKjw4935HZbaNRq0KZXAIqmA1QYr276n/biM1xafNfCddUiZO5vqZEU0PqvL4dO1hanqxsIejNI/PNxygRmdiZIwJQ2eXJ7eLyoMH2PzJBl78925K/bw+ldojWbAwtk0F4DgbXl7Hjm7eA/urnH12Phsd1DZ40OoMhJr06Dr9yruo3J/Fe395h2c3nvCrBbi//0YAlceCmLKojlEa0JqgYH0I+/xtwnPbcbmVKDXhaPS6DtfINjw2bDkfcfjD5ykv68HywvX5VO7JxO5QEqTRotLoUKo6nGjbD5TtzDpF5U2JduwSIs1NJ9Kve2JXHAVUH7IQPCqNkJCOf3gHDQWfkP+fl6iqHUXEzOkEBwGNVdTs+L9T3ucbq3ZRvvcHXNoYdOGRdDxcL3dlFuVfv0TRvqN4/L3U9dn5DIAT+VR9cwh3sAHVEMPJ1/nafCo2HDz5HqI0M/TSSeh62FTsKcikPPPki1WjzYZHqUZpHIpa30WKr60My38/4shLG7F12iXZucaj2VRmFOJSqlGoQ1BqtSg6HIs7/ztO7Kr2vYHTgokRFy0jofkyXP3lfXzwz3x0yVMZHnlyClR94To2PXU7X2471u09Tbu2kpuSPEAQeWvDeWJnYJL+gkaOHNlv628pDAmEDI9DFxaNWqdFCbjqSmk4nk1NYZHPlUjPGBozhsR0hoSbCKIBt6UIa34mNmvftPQrQ1MYEpeIboiJIDU02itxVORhKczBOcgWTT2bKOPi0cWaCY40ogxRg8uJu7qC+vyD2PItZ+hid6chjY64CYmMGxnFsLCmv1NDbS2lRSXs219Cac1AF7DZYC9n86J340abMJuMaLVAg52K0jIOZueRXdKLKlq/HXsjC395lFfnuwAFGa8M57pPe3DD1ZjRD08gONyMJsSASgluh5WGE3lYC7No6EEscfrQo42finF4HGoNNNYWYivYjqWijxbeUYWhi5uIISIadYgW3E33UFtxNtYK/8dfir4VFB6NLmEEweZw1AY1QThx11hwFB3GmlOGWzrJTyGR6S//lwvHNj0qeGEq//qsHNBiSFnImAmJhA7R4qwt5kR2Bnl783oW5OrqeeGtMi4NA+whPPWzSF7v5niMnurXoEIIIYQYdGJrWfv3yqZ1MwrCuOgOY0AGMQohzmadBRV9K3JROd/cXYcWKP/czLwXtD1K8eyJAZxSVgghhBgARQZe2tycWxFfy8/SpW1NCHEGUDq54VJ706xPdh3/WBm4gAIkqBBCCHHWCWLd/w4lwwbgYuG1VhJP9REhhBjkImdaWBbfCASRty6UFb0YQtUTElQIIYQ4+5QZ+MunTdMsapMt3D9DeiuEEKcxpZOfXWfDCFBu4C//1gRkGtm2BucyrEIIIUQ/27XCzNgVA10KIYToA241T90Wx1MDWATpqRBCCCGEEEL0isz+JIQQQgghhOgV6akQQgghhBBC9IoEFUIIIYQQQohekaBCCCGEEEII0SsSVAghhBBCCCF6RYIKIYQQQgghRK9IUCGEEEIIIYToFQkqhBBCCCGEEL0iQYUQQgghhBCiVySoEEIIIYQQQvSKBBVCCCGEEEKIXpGgQgghhBBCCNErElQIIYQQQgghekWCCiGEEEIIIUSvqAK6N6WHyXOsXDOzninxTqLC3Bh1jYCaFfcP57EfAloaIYQQQgghRB8IXFChcXLn78u4P80dsF0KIYQQQggh+l/AgorY+dX8ok1A0VAeTMY+DUVVChpcCnaWB6okQgghhBBCiL4UoKDCw9wZdrTNjxpyTVzx4BD2OQKzdyGEEEIIIUT/CcxAbaWLcTGNzQ+C2PmFXgIKIYQQQgghzhABCircDDW0PKDoqEw6JYQQQgghxJkiYLV7rdr7vyAa6gK1VyGEEEIIIUR/C1BQ0djm/0GB2aUQQgghhBAiICQPSQghhBBCCNErElQIIYQQQgghekWCCiGEEEIIIUSvBCao0DWiVTb/3w0NMp2sEEIIIYQQZ4yABBXaWCex3qACJcerArFXIYQQQgghRCAEIKhoZMa8OmK9D09o2Gfp/70KIYQQQgghAkPVb1vWNBI7ooG5CyzcP9/Z/KSCfesNZLj7ba9CCCGEEEKIAOvzoEI7uYpvnrYQ2fEFh4pdn4Zz9/v9F8cIIYQQQgghAi8wA7XdKnZtCOXJD4Mpkl4KIYQQQgghzijK0NDQx/tyg+6gIIY61OTmaThWC0Mj3ejVHoYl1XHNHDeV20LIqu3LPQohhBBCCCEGUtDIkSMb+3MH2uF1vPCnchY250NZMqKY94SO8v7cqRBCCCGEECJg+j39qeFoCE99qKOh+bExrY4Zmv7eqxBCCCGEECJQAjKmoigrmDzvWIpgF7ERgdirEEIIIYQQIhACM1C7TEmN9/9KD0MNAdmrEEIIIYQQIgACNPtTEA1tZn3SBmavQgghhBBCiACQ6r0QQgghhBCiVySoEEIIIYQQQvSKBBVCCCGEEEKIXglQUBHU5v+NoArMXoUQQgghhBD9L2A9FQ1O7/8a0co6FUIIIYQQQpwxAjT7k5LjLXPKuhkT6wnIboUQQgghhBD9L0BBhZp9hd5dNTJunpXJ0lshhBBCCCHEGSFo5MiRjYHYUeT8E2z8pQ1j8+OGKi0792ooqlLQ4FGS8ckQ1pUFoiRCCCGEEEKIvhSwIdPlG0P5y4wGnpjuAkAb1sCMHzU0v6qGrRJUCCGEEEIIcTpShoaGPh6QPTUqyNps4OtiFSggSAnBqka0agAlWRuGsOl4QEoihBBCCCGE6EMBS38SQgghhBBCnJlk8TshhBBCCCFEr0hQIYQQQgghhOgVCSqEEEIIIYQQvSJBhRBCCCGEEKJXJKgQQgghhBBC9EqfrFMxatQoAKqqqqiuru6LTQohhBBCCCFOE9JTIYQQQgghhOgVCSqEEEIIIYQQvSJBhRBCCCGEEKJXJKgQQgghhBBC9IoEFUIIIYQQQohekaBCCCGEEEII0SsSVAghhBBCCCF6pU/WqRBC9B3djY+RtCi809fdW1/jhxey+2ZnwdMZ9fZSjErAXczRe5+hvLRvNi3E2cfMJTP+xi+i9eDM4qUvHuKz+oEuU//Sz3ub8TPMALi/f5Idn27tnx1F38CEm69FpwAcWzn47JNUuvpnV4GlYeLE13hmlBk8RXz49Z28VuUY6EIJ0SMSVAghRF/RzOHxDx8g3ZHBU9c9RYbUDc4qhuHL+Gm0HoDCw++w7gwPKM52mnPv5q3fzSfs+1e4/uE1VPVoKw727P+IPSN+zkR1LJeccwWff72Swj4ua5/QmRi/8Ef8aEYCccNMGPUqnLZaKkqOsP+bDL5Yl0+Fc6ALKQaSBBWnE8VMRt/7KJEhgKeUY2/fSOHRgS7UaWyQnk/nvi2UeYa2e06dPB1Tgm6ASjSAxlzG2KfmEgxg2cnh21dgkZuWGIwUKfw0ZS4mAGcmH+blIDGl8It9Pf9beAUTE8xowq/kxpjV/K7ENtClakedeB43PnAxE6PaVxvV+iGYk8ZjThrPjEV7eP9PH5Bx5IzoQhI9IEGFEIOMa/smSre3f053w4SzM6gQ4jRhGrGUhcam/5cWrmJjw8CWR5xOHOzJW0N2/M2kKvXMGnslicfeIc8z0OVqNiydW35zGeONbZ6z11JR7SQkwoRO3fSUethErn9chfNX/yLz+ICUVAwwCSqEOJvVf0fBzVkolIDbhXtwNY4NXkNncPdDcyl672U++t6/pIewSdfw86tNbHjyFTLlPJ9ZFAlcOiYdA4Anny8PZ501vRS2r+5kR/MwikbXmfnF1kxYzuOXOVnzxkoyjvrzl9WTfMnPWTYmi2ee3eBfWlTdOtaVLSV1uB6GLuan5g/53dHBcD5NnH97m4DCXckP//sh//4sH4sbUJsYe/ml3Hh1ctPYvNDxXHtrOvt/n4llAEstBobM/iTEWa7RZsdtseO2SV6Rv2IXX8v8CTNY/ofXePG+i0ke2sWbw9K44sFXee3JZcyYMJ9rL4oOWDlFYGgil7T0UjgqNvF57cCWJ6BcNtz1Tf88Z2TWSxjzr76YtGnX8MiLr/LI1WmEKTt/t37MfO5+/m2evXUOaedfwRXJ/u7HxsbC7VibtsLUURdg7nXZe0+dfgGLzvG2P7s4/N7bvPxxc0AB4Kxk/3/+xd9XHcV7B9FNbvsZcTaRoEIIIbqp6L3f8uu3NpNv05Nwwe08+8qL3L0wAX27d+lJ+MndvPja0yw/PxZ9TT6bX3+cJ1eVDVCpRf/QMyt+atNYChxkl3yJTKB2JqlizTMP88q6XKo00cy44Wlee/EBrhjX/teOLpY5tz7La8/ezfwxemwFGax46rf8K9f/PTmOb2J78+B+TcQCFg3pu6PoGR0T542nJevpeCYffuYrr8lF0SfryTzhfWxi6oXJqANSRjGYSCjZTxSh6YRPmYspPgW9yYRaowGPA3d9JfU1RdQVZ1NzYDNVBaX4TJvULGDsA/cQ2lnYpzAzbPnnDPP5ooOKD64iL/cU3bShSxh3x80YFIAni0PPPUR5HaCKJXTqEqJT0tBHmFGrwOOoouF4NtW5myjfuxV7XduydG/Ac7spCPc9yY6P/J2CUI8uaSGR49MZMiwOnTEMpaK5bBWFWAu2ciLrSywVPrqMA3E+BztlEjF/u4OIzmar7c2UskoduumzMc0ch2FUNFqjjiA1NNbbcVdXUF9cjHVfNjVbsqjvrE/83GWMf3AKnTYCGqcw6n+ndFL2AxTd+ncqA9Xf7q4ia9Uz3PXFR8y/djnLFqYx/xcvkn5hPg4loElgyZ9fI3lMGDjKyPpkBW++u5n8AGQzGC5fxb13TgbAteO3PPerFXR/EqJYzn32axZNBGgg76+zeW9ted8W9EyhncW8qOYKpjufbaV+zgGkSCPujj8yLBTAQfVn/4/9WX58VpFG/C/+SLSx6XOVn17Hwe+7+GJpYgmdtJjI5Inoo6LRajTgseGsKcVWnMmJHZ9RcdS/Miun/JFzf5LW6eu9mVJWGbOY4dPnEhaXgDZEg8Jlw16+h6qdqzialYP71JvoPzW5rHnpPjasnsO1Ny7j8nPnsPzP6czJrWxqSBg+n0dfXU5yhAaqctnwn9dZsTaXqu4W2p3FluM2LojTgyKBWSMSeDsnvx8OyE+6BMaPbx3LV7p1O4c769C257J1RyUzFjaF17q0ZMaqf+AH6QA/q0hQ0ec06Kc+yph56Wg7nl2FBqXBjN5gRh+TTuS0G7Bn/JLvN+YMSEl9UUQtJuGqmzGZNO2fDw5DFzcTXdxM9K7ryNnZs8nzelyu4YuJX3wDkVH6k18LDkMXE4YuJo3I827AtuM5ctZvHdib0NkkMo3hv1xKpI+B5EHBOlTmERjMIzCcOx3zddkU3v4aVWdKsm1NPhte+zWbV8/g2puWcfl5CYQBKKNJHmOjaMsK3lzxMZl+5WH3DWv2Tk4wmQhANToVsxIKuvtj0IzDPKr5/+4iirIloOiMIXomE73XeksW2+1+ftCTReX+UoZNMwMajKlTUWatP/V1K24uod6mY0cWlQc6DyiUo28g6dJrMRo6vKDQow5PIDQ8gdC0xQzb9XcOfr6JhgEZGByGcd7vSZqR0L5BQaNHFzMTXcxMIpPfYP83A1G29hwFm1nx282snnQFN990LXOSY5teiEgg2VFG5qoVvPneZor8/Q6cvAf2lGXjiEtHA8QNm0ViTj55fVT+bktMZHTLLbeWQz90PT1i8Z5C7AtN6ACMI0kaCT/4WfjQpOkkR7Q+dhzPZVdedQ8KLQaSBBV9TD3hUcYuSG/T7efAWVGEvdaKBw2qIWZCwsJQNLeYK1Qa3xty5VH+9Upq215lFbGYps1ErwKwYc1aR5XP+TUbqD/eg0qMYS6jl/4cU9sZHrw3mQFMlFMm/pyUJYvRtz1VHhsNJ0px1kNQsJ5gkxmlClDo0Y9MRMNW2l3XB+J8DjbuCmo/34CrbQVDMYLQS1KbpmztCXU85l/9D5FxbTq6bRXYSyuaBn3rQ9BERqMxNr+uUBHU2baKsyj7pKLdVy3IlETEj+KbKhvOMqo+z/Jd8XGVYu/xjbz3HEez2Loti7TU2NbxFVVFZH6bQXYAAwoADu+itAYihgJDx2M2Q0FJN7cRM45h3u9JzT6KB+Wk+YOBhonRqXgvTZWVe7q1voB1XyYN6YvRKkARN5PQkPVU1HX1CQ2G1Klomx+5D22lupNuKEX8zaRcs6T5+tbEYy3FXlNFo9qMLqKppxf06Cc/SEow7Fu1ia4alhuPbaJoS9tGMDXBoxcSGXNyY49/NOjn/J6xMxJaf/ceBw0ninA6NajDYtGGgDrpZsZoBk/jW1VuJlt3nEvayNbxFbbiLHZkZPYioGhircgiz5NOqgIYksZEHeQN0LXNGBdFS8e2+zhFpwgQnPkllLonMkoJYMI82t/Cq5ly9QP8fFLrM7avnmL5i7u6/D6KwUeCir6kSGPY+a0BhbtgJXmr36O6ukOlQmXGMHYBUdMW0LEBqYUnn8otHbo9FTMJntRcCfbUUrvjDY722boKGoaefwvhRqAun/JvV3E8ezvW6qZWMEVoCsakuQybdkFf7dA/piUkXd4moHAUUbHldYp2ZNLQ9rSqzBjGXUzMrMWE+tpOwM/nYFSB5bO17WfkCJ5OyEWpBHcx8LArqh9fRJQ3oHCWUfnOCo5uLMbdoblVGZ9K2NzZhM/s4pJTmkX5u1ntnxujZqg3qLAXU/3+2kG3TkXYhOZWyzF6sDtwoEGDA4c+mSsefJW5l29g5esrWLMvQL17jp0UHW5g/EQtKBOJHWvku5LudQ2pxo4jovk74crbRal0+/mmSGFSqLdC7SCvspttysc2UVm9mGEmQJNGxBg9FVldpDIpUohICGvZX032N757NjTpxC1uE1DU53Ns7Z8ozi5qTbc1pjNs0b3EJTVtT5t6B6Pz9nSZguU5uv6ka6ReObPnQcXwpYya2RpQuAtXkffpitZ7piIMQ/q9JP44HW18Ss/20af0JC9cxi3Xzyc5TIPD7gCdBhwO1KPnc/uzM7n4q1W8+c7HZJb1sDGhIY+8ekgNARQJTArX82HxwMwCFT4srPWBrZKKU8UHNZWcqIdRegAVEVFhwAC29oiAk6CiL5nTW7ulXVkc+fgdqq0+3ucqxbrvHaz73kMZEsgCdkGRQngSeCo2cfDff6a6Qx3EU51D9fYcqnetRmcM1AUujPALl2L0NqPX51D07m846mtRIFcp1qw32J+zifBJcZyRk5AMOjqGTBzV0vPg+OpDijcU0+jjne6CbE68nc2JVTqUg2GWxD6gGTGDa2+6mcunRaPBQdm3K3jlrSouevVu0h07eOGeDcTddDuXT5vP7X+ew8XffsyKt/ydkrI3yineXwQTEwEtEcnj4cuMbnxei3ns+Jabw4n9O3swJsNP3hXIexjUtrAP0ArmmkQSvddwTxmFtd38cntyqMgtZdiM5hSo5Fldp0CNmEmot9WkPouKTgbpqCctJdL7Pk8pZat+ReGhDu+1ZHJs1W9g2V+Ji9EAekJnLcWw92WsAUmD0mOauRi9N6KoXs+B99/A0vbL5qnCuu1J9qv+yvgLEgaww1xD9LmXs+zGJcyJ14OjaUzVKwfT+cND8wnL/Rd3vQfX3vo/zDl/zaBu3QAAIABJREFUGY+ft4Cs1St45f3NFHX3eufJ44jVASEaQENcWCIUZ53yY31PxdDQNimtVbXUtHwvdIxavIA5Y3XUfP8Vn2842hQ6eGqpsYB3xoqh4UbgjG6pEx3I7E99yWhG4z2j1sL2g5l9cuCuG0RpNZ58SlY9f1JA0Y6rCHtlgMocfgnDEltbAS1f/dl3QNGWI5+KbV134Ys+ojSiCWuT6FdQ5DOgaMdiP6kX43QU+5PHeeulR7hmWjSUZfL+k7dx25Pvk3mi9bfhOJ7Jiidu47Y/fkTWCYg97xoe+furPLKw/6eUPZGd1xIIRCSMOzm9zZBIxKhxRIwah+GkoTBRjBgT2fz/co5lD1hG9+A3JBZzy120kmOnvOafzJazFXtzZU0RP5PQTnMRNRhSZrWmPhVsosZntBdLxPiU1tb/vJUUdQwovFz5lH2xvjWl0DSLiPhOUnL7WsgsIke3ub5nvNM+oGjhwJ75DhUDNg4rjDn3vcqrv1vGnHg9VfvW8My9N/HrtzIoa2mEd2D9/iOeuesmHv93JmVEk7bkAV597WmuGN3d/dkotLX+vcxD4jrPaOhnIbo2Fwennbrma7f56p9xz03nkT5zIj++/Q5+ttjU/CY7dW3+hip9sMwAdZaRoKIvudpUtkPMaHucqD4w3HmrKOtpl20/0KWmt7ZiWbdybI9M1DiouF142kRvqmFnz/oLRbmHqHRXkfXJM9x1x+Os+Lask8XOHJRteZNf33YXz3yWS5Wzirzc/p9S1pW9i1JvgUaNY0S7eqKWEcvf5fY31nD7G2tYes249h/WTGZYrLf4BynZ379LQzsdgLuX/zwDc90y6MytFT5nZc/SxEq3UuXNONKkYUrqJJVIkYIpyZuOYqNm33bfPRohEzFGeR84qMnpJEWqmad4U5tZ08IwjkroVvF7SjEijSHe76Urh8r9XaQHOrI4cTiwk4O0qiLnYCnOmnw2/P0ubn3wFTYXdPJ9c1eR+d7j3HbHU7y/uwyHLZ/s4u7vsbKusvWBzjRA61WoUbeNCJzO5sa6IYyfMrxNsKBibPrYpsHZbheuNl82tVJCirONpD/1peP52DxzMSoATTqxFy2hfu0qbD1ovQo8B7X7O7lJDQg9ISNiWx65CzOxDJ54RwBQgb3EAmOacv6C513F8ANvcezbilP3WJzuDq3k4eUrsdX4+aW0F7H5tfvIXKnHWdO/RQOgZifFpRAfBxjGYY6BvP/P3p3HN13li/9/kTRp04Q2TWkbupeWpS1QkEVpYaC4gFdBGVzQGfW6jaMzc3Vmro7X8c7203FG74z6Ha8zjtvIjIoOuIBcFkcqQkEpKGVpWVIobandm5Z0S5r4+yNJk0L3LSl9Px+PPh79fPLJJyeffpqc9znvc85p12PKFCbPiOg41DgrEx1H6cjUTErH6G6gLP2S0q5SOIeK9VOevOHTYXyB4aUL1HUM0sZmYUCXylFI3fFSojPjADWhU+ejPJRz4WdxbBaGjtSng9Sauul9iExG4/5md5Ri6S0f31GEpdwKeuc7CYyMR8nwT+EaGBXvme2p0YSlx+9JK01lJTgywnzSElq5+Unu/KSJpj6mMlnL97D28f1sCIWmAXxvWWxed5IqDIMCup57fjidVz3syCluoaa6BaZ4ejEaq6s8D3uXU+E8S++ZAzY+eWI1nwy8sMJPSE/FUGrcQZXX9H6B0+5h+o/XM/O2x4lftALDpGRUI9Sz3G+OSpor/SjZXWEkOMxzsVqrTCP/mSp6Zfn4AK3u2kdQLBE//gUz/vwwiT+8nogrMgiOD+l+tqdRzdr3gMJLU0NTNz0aQ8x+lFKTq/lZGUdciteUboZsZ7DhlrKARK8VwYOmpqN31fYsJ7+kxn9aGvyOTun1ge6wYh3gh1TTkX0dKVDKSdmEdtHLrUud13nWp25uJEWIwdOK3F5BW69pQ1bazJ6WccV4IyPxNaUKMXg2Gitp7eXa2c0Vvmv0svc9oPAY2GcEgNX7jQaoR+TvcaF2bN7lCFS57qt2Dq5dz87Cc9hsLdR+uYPX/17UETgEeHdOOGwyvnGMkZ6KIVVP7ZZnGR/2CFFRro8BhRZNYhaaxCzXMVZsVYWYj2zi7Be5tPnNf5wFqx/FFGBAGejZsjfVdX+o8J2TmznzjyiSv5tGgKsiOi48ltBvxRL6rWznjqZamo8eovajHdQdu1gWqPB3bZQVmGhfegkBBDIhbTp87BysHTTnEoxKoOIoZep0Yg1zmDwjkCO723AO0p7s+mJoo6LgiO/ewlhSnUN9/Wo04YA6jfBkLXVHvT6QFRkYpriTYJowF+Z228iiDNJ5WgutVtr7EOi0t3q9lkrrnGp2WFtx1AQEedK8HFZL772brRbaHaAaC02hftESY8Nma6ejmqjyqi5WHeGdx47wzvlPUQZ5xpUCtha/qeCIETIW/j1HliWX4tfuo3D7Nsy1TV18LqtRRWYQsfRxZt73COFdzn/qC1YcftYVoPC6Ox3SWuqnbLRufoljj6+lcl8x1q4GWmrDCZ6fTdxvHiP5psTuV8y+GFjzWffUkzz5hw0U+jhdr7XgAGbX/40+6RJX7n8gsbPmEABYDrxM3uFGIITYOe6VyuMwJrlSo2TRu15Z7F5/ZIW6U4WqXxxF1BwrdW1oCU2b3/nLeWKWZ/2g5oPUmPp6c/XxOO8avS9qBY4+xDB++B1gPfkRz//uSZ78Rx5DOeJDrfDqm2i3jkzv5gXaaTnnNR2sNoSQXj+8NYR49Xo2njsnk6aMMdJTMRzaK2j84jkav3gOhS6Z4Pg0xsemEpI0n5BIbcdntsKQzaTVJTS/um5szeTcp1ql1Tnu3TVdoyJoPOBXXSnCi73oABX/c4AKpQb1pCS0qUkET5tCyPRE1B2pHBp0N9xNdOlvKd17sd7x9Rzb25/pW4fR6S+psLgWwUtKx6gGk30OSTNCgEaKD+Rg0h2hfXEm+hlLmKDcQ416DnHu1KiGA8O/6N0on1LW0laHlWRneopKN6hZelqO5tKyYA0aBSgTs9Crc3BPtKdLn0eg64vDfjqnx/FlDu8JQwLUfYoRFN5pXHbriIyJcrTbwJ3Y4ypnj4FFoLpTQ5NfaCgi7/z1j4aALtDr72Grp85HDX41NeeA8c6N8eMJVdBzcKceT4jXPAONNeeGsXTCH/nbv+hFx2EpwlKwia+3P83xl27gy1dfpNJr7IIieiVRib4r39A47xuul65bpSqw5wMAHJXYvAbuBerHzsxCo5q9BevJAuo3bubs089S+L3fcHp9gVeOcAhhV82V1oyRYD1A8WnXzE2aFOKSgPgFJEYA1iMUH2ykdd+nlNmB+DnO/YlpHYO0200FsuhdLywtdZ7B2SqDM61soCp3U1Pj+j1oFgb3dNqKVAyTvVKfjuT1WPm2N1s89T61AVUfZiFUhXiFQ62WAY8N6TsrNounwqkIDut16lGFzjBmpic1BnmNN2mpw1fzHtaW1Xl6GtSRxMf28oS4GCZ0/JFaqCmTtOWxRoKKEWYv30Tx2mep7fgmCkMb3dcJ4/pXeR85XqlTikAUPX7yawnUh/V0gEsdTdVeg95jU+lDKNJP/no9u2D35KYqer7A/qW1lsZ3X+L0Bs+ieOMSkwgeyFu4qPOmhkM1Xx93pdQo4zCmRKCblelcKfv4Xk42AHV7OF0MKNOZPCcC3bTpHSvSD+uidxeLc6VUdFTADUwc1GKmRdQf96RA6VNdKVATsz2zPjXvo+ZUL90xdaWeQc+KKDQTenvdMDQTPJ/J9trSEUlZaa2v9ARH+njPjFXdCAw3jpEKixaj1vP3qDhXMrBZxYaAzXTG2egAoDQQO/mCRW06CZkc45n+1l7OqaHvxBF+ThoMfaE1j/pyK+FTnF2cyqBu5iW/gBWHu26pGE9AoJo+58wOJ4cFazM4+/61BIZq6TZVST2L0D7FUFYspoPYM7KcdUnjUsKj1lE+pFP8++n17IKt0ZMuNC7MQACMqlk1Wr86SdtNsc5F2NSavscHNhvf2HEGFGoNSiV9mZ9QuNQUHKWVFIIIxDg1k8TQdAKAioM5zoqK3YTpYCnZyXHEzlpKrD3F9cwRWvTO+im/Wvnp8L/OcLGaMDVDmg5QRBEfqoWGgadpthTk0pS1Bq0ClJOcKVBtXqlPNlMujb3949cV0NwMWh2AEf2kZEpKeqjdBc9H3/GZbKWprGDA5e8Pe1khLY4M51pEQamERIH5bHdHhxGSGNfdgxcXRQoJHR1HVkrqfbj4ZJWJ42WQlAAQwNS509Fsz+smXXs8sy9N8GyWmDhe0+WBXVJNnMGceK+6UFMZB46Uycf9KDM2An+/E0VgqCdn0mbpYxeho462jiYLLcF+s9hYBW0d8xuqGZ8yv9sbSzV9Bfo+tuY5TNuoc79fRRzRV6zu+HLtUZC2bze2317PC7WXVniCiMQphIT7sjT9Ny4yxJO60NSIra/pFXW1nmNVUWhGZl2ui0Z7wdGORfB0025i9oxAoJTiA+6KShsV+/ZgAYJmrGT2VNdoYOtJiguGd9G7i4KjkK/M7iBCTYo+pcfDe1W1gzr32PigWRhS5hHunfp0tOfUJwDa86nzWkFbk7GakB7mJNXMWeF5vL2IuqIRWmSuZh8N7pdSGJkwN6v7z+2olUTE++t87EMsKJU0d8qao4ijdT4cS2gvZ9/+qo5N1axMFid0c2xKJovT3O3U7ZzOPdivtK2oxXfw8CMPe36+dzmx0js96khQMYSUMx8h/bo7MET13PMQmHEvRnf91VGK5UxfP8RLOfe151jt3DsI1/vDB20TllJPS5hyyi3Exl94DRRRa0jJzuh7K7U1j7O5+R35wcpJ95B6/Qo03b5lLZr0h0hfvaKPqVL+ej27UJhPo9n1e1AaE+9eRJCvV2xXJhL1+H1EXz2FgJ7Kok0katXMjr+73XSClr7m6jedpvlr90Y4hhuyff++RxPXIngAJGc616Oo+5KT3qtkH91LsQWIyCTFPUi79EsqLtax9EPKysHKgo7+TcOEWcT3eHxvSqkvdH+WatEvuteT+mTZR113KzmfVybz/q0d614Qks2ka7O7nIpVmXgPyZnJHRUB+4lN1JgvPG5YOAqpOlDYESSppt9DYloXqbFBGcRd921nj8YYoJuQRrz7vZ7LZ5+PF8+t2PoZR9xxjSqaq3+4jKTzv95Dkvn2A9/yjClqPManH8t4irFI0p+GUoAB3cxsJs9cg70qnzrTQc5VlNJ2rg67XY0qPIWQqcuInBbnqWCd2kRFP1J6LAd30DJ7NRoFEJJFyv1/Y2JxAc2NFhwdU3ZYObf/RWqrejjREGs7kkvjolRni1dAHBNveQHNV9uoKSvlmwADQbFZRGZkEKiox3IWdDF9GVcBbfue43TCH0mZ5jw+MP0Bpicso/5QDvVnS7C1WkFtIDAiFX36UmdAV7muz+X21+t5gdYCqrcXE3ZTIuOAgLk3MPXP2bSU1+KZ1bIdy/svUXmoi+dHpBGxbMqFAZ0yiiD3TmUIISuvR3nBl5iNlt2baSi+8LTKiWlE3JlGxC21NB8qoPFEGS3ldbQ3WCE0lKBJaYRlz0EX7uqnsFdSt/lQ32eHtFdSv7uYqFud71uZfj1TXlhA04kyrGabp9XWUUb9P3bRLIMAOrMfpfR4I8R7Fr9rLcihzLtu2rKHkwVtTJ/vCcUtx2TRu76yVOZysH0e8wOA8RnM10DJIAKyloI8mr6V7EyBivR8V9iKcnpPfXI7+zYlB7OYeomzlyMw/REyJmRReSCXc/V1ONTxaJOzmTgr1RNstOZTmtPFSt4AqNFm3IIh/MLBUKqE8R2/jzNmE7c09cKnW/Ip35d3wbnbDrxMxaw/Eh0JKIxErHoZTcomqk4U0GZVozJmEDlnGSF6NVibcKj72As9aqmZFZXWsdhdyde78WHyk1NNHu+9P4+p301ABahSlvLQHxPY88lXnPraRvDEFGZdOZupE9zVyRaOv7uZPFmSaEySoGKYKCMziIjMIKKHYxxV2zBt2tS/nMHytZz6LI1pS1KdXzYBYWhTsujccGAl4NQr1FaN4PiAxk2UfJFN2iJXq5faiP7SO9Bf2rlcTbm/p3TcQ6TG9PXEFdS+/zMU1/2GxDTnQD2FLpnwzGSGJAPIX69nF1rfX8uZmB+QkBXuHFOuDUcz2fsq2LDnqOhy0EFkGhNWLuplZdYQdFdkdzEtpo2Gku00FPdwpwaFEzx/EcHzezi9vZHGf6zl66P9y5K1bn6L8uk/JGams2I8LiQK3dzzUtXsJ2h5V4KKC7VRdvwI7VdmdixoV3Zgz3njcaop3n8U5l/S8ZyK4wdGuJyjWNtuPqm6l/nRWlAkc6kxjPWnB5FCVLuD2oo1aKO9d9ZjLsjvx3p0TZi3PUGx/v8jcZKzQUYZlUX0v2V1fbi1lK/f/z2V3TYuawmevoboST2/qiIyyxkgnK8KavZ1kYvfXkjp+lcIvv0e9DpAoUWXsQZdxvnlK6L8XwWELV/hbAC6WCnnsSjC9e3jKGJ3mX+MdK7Y8Hdej32AO5c4Z+BSRSaz+JZkFl9wZDsVW9fx183976XQajt/69rqq6iXho1R52L+9xxx9uJNlOzLw9JbDmRrBeY9T3Pk9ecw93taByuWXT8h/40XKT+aT5O5yU8WrbPS9Ol/czy3sOt8+dZSarc9SuGO/P6vYdReSvWG+ziyYQN1lV0tKOg+rp6mgnWc/GB9P9b98Nfr2QV7LQ3PP8WJF7ZTf6yS9iYfD2GzV1L//nbqjlbS3mNRbLQXHaD8qWc4vbms/3Pg2yqpeeq3nHhxO3WHnD0U38iXTZ+1FhztWAQP+1FO77twQTtL3h7P9LF2E6UF0szYd03sLt6HsxqlJi1mKX2dz69rpdQdO68yadlHTZ9Sn7y0F1H59g8o3JFLU7cpNFbaTm3i5Cs/pMQ0QmMpzle7geOvP0H5qfouP9sddXmUvP0zSssu/nWKdFHZuDsMrbU5bPGbZR7OcfD5/8dzrx2ktJuPBpv5DHte+l+eeenYANbdimR6inc0auazD/7FSGXiiaEzLiEhYdDr3CQlJQFQX1+P2Sy3AThb04Oj49GERaHSBKIE2psraKsqoKGkFLu/VlyHgi4VfXIawWE6sFmw1RZgNhViG6LpipT6VMbHp6AZb2CcCr5pqcNaa6KxpBCbf07edPFzLXqnSQhHrQ9BoQaszdiqKmk5cZKWCpnDQ1zEFMncmf0Ct4YAjiLe2vFDXvebCiGgCEOTOAtdhPP7CHsbtoYimovzaeppJb0RpgyfR2hiMkHjA8Fqoa1iH+ZTpf64mPYw0HL1pW/xk2g10MTuL+7g1+V+GEipxhM3K5lJ8QZCNSqsLY3UFhVx5HBV38fKnS/kcn7+1we4xJVdZyt8g/94fCO+zDgWAyPpT8PEYSnCcqLIZ/NL+5SlEHN+4bC1MtjNhZjNw3d+MQCuRe+sJ31dECF8wFHEhyfzWDlnHjpFMkuTMnjzUL7/TFDtqKflVA4tp3xdkJ7Za/Ooq83zdTF8Q7eClVGuBNXGTbxZ4YcBBYDtHKV5Bykdwj+TauoMpnYM16nis39ukYBilJL0JyGEEGKQ6sreZqsrNcQYv5rLh361TnHRUjNr0jJSlABN7D62HtPFnM1wnknTp3aMY7Qd2cL6fOnZHq0kqBBCCCEGy1HIm4U5zrEVqnnckJLay8QIQrholvGdeOdIHGvtel4/66e9FMMikulT3OMpqvjXe9JLMZpJUCGEEEIMAUv5Wt6sdFYI45PuYLnGxwUSo4CaWVO/zSwV4Chl4+H3KPF1kUZSyAymOYflYjuykY3SSzGqyUBtIYQQQgghxKBIT4UQQgghhBBiUCSoEEIIIYQQQgyKBBVCCCGEEEKIQZGgQgghhBBCCDEoElQIIYQQQgghBkWCCiGEEEIIIcSgSFAhhBBCCCGEGBQJKoQQQgghhBCDIkGFEEIIIYQQYlAkqBBCCCGEEEIMigQVQgghhBBCiEGRoEIIIYQQQggxKBJUCCGEEEIIIQZFggohhBBCCCHEoAT4ugBCiM40d/6CKVeHd/u4PfcljjxfMDQvFnQZSa/fQogSsJdR/uNnqK4YmlMLIYQQYuyQngohhBgq6iX8auNmNq//OZlqXxdGCCGEGDnSUzGaKLKY9OPHiQgGHBV8/fqdlJT7ulCjmJ9eT9vRXVQ6QjvtU027DEOyxkcl8qHJ1zP1yWyCABoPcPr+tTTafF0oIYQQQpxPggoh/Ez7vhwq9nXep7lj5tgMKoQQQggxKkhQIcRY1vo5xffko1AC9nbsTb4u0CgRmsmDj2ZT+vaLvHeovk9PCZt9Mw/cZGD7E38mT66zEEKIi4wEFUKMcd80tWD3dSFGmbgVa7hqZjLMzGDJjrW8+MpHHGvo5uCwDL597/2sWRyHFiuGa94j793KES2vEEIIMdwkqBBCiH4qffuXPNZyD3ffvITkpffzhzlXsX3t87yyw/soLcn/dg8P/vtVJGuBhiI+ffdVXtkkAYUQQoiLz7iEhIRvBnuSpKQkAOrr6zGbzYMu1MVAoZ9H+JxsDImpaA0GVGo1OKzYW+tobSiluayAhhOfUl9cgaOrE6iXMfXhh9APaH4uK7X/vBHTMWvPh+lXk/6De9ApAEc+p559lOpmICAO/fzVRKVmoJ1gRBUADms9bVUFmI/lUH04l5Zm7zfbvwHP2stfZ3qmEQD70SfY/15uH9+XFs2U5URMn8f4ifFoQsJQKlxlqy3BUpxLTf4OGmu7yC0Zies5jDR3/IIp1zinmR3wlLLKKcS88AMmdDdb7WCmlFVq0Fy2CENWOrqkKAJDNIxTwTetLdjNtbSWlWE5WkDDrnxaG7s5x9zbmf7IHJQDeHnsJyi973+p6+7cwyU0mavW3M3tyzMIU0P9sSKs05KJsldy7JSaaZPDwFpJ/v+t5dW3PqVoxNKeQpj2i13cuDgEgNYdD/Hskx/S3pfn/XoXNy50Ps/y8f386Xdb+/C8sSAQ4wMfc+/qOABadz7Es7/5EGKu47LbbmLGrOnoDSEEWBsxlxzBtOvv7N2wFbPvPjaEEGJESU/FkFOjnf84ky+fR+D5V1ehRqkzotUZ0cbMI+LSO2jZ8xMOfVLok5J2RRG5guQb78Fg6DwfpiIoDE18Fpr4LLTtt1J4oG955ENWrugVJK64g4hI7YWPBYWhiQlDE5NBxII7aNr/LIXbciWlZ6REZBD9k1uI6GIg+bggDQHGWHTGWHRzL8N4awEl979E/UhX/odLQxHbX3qMTzdlsuau21m1IJkwAGUU0yY3UbprLa+ufZ+88pGuWTZi2rmH1sXLCQKC5iwnUfMhppZenqa7mhmzQlwb1ZzcmSMBRQ90C3/HLY/ezATvW18Tgn5qJnOnZjLr6q1sevwhjpS09eu8qokzmJPk9VnXVMbh/DJkKI4Qwp9JUDHEVDMfZ+qyeag69lix1ZbScs6CAzUB440Eh4WhcLWYKwK6mcy+3UT1Z+s4591sq4jDcGkW2gCAJiz5W6nvcn7NNlqrBlCJ0WUz6ZYHMIR47XN3o/hwRRNlygOkrl6B1vtSOZpoq6nA1grjgrQEGYwoAwCFFm1CCmpy6VR/8sX19Df2Ws5t2U67zmufIhb9yjTnlK0DoUrE+LPbiIj33PE01dJSUesc9K0NRh0RhTrE9bgigHHdnassn8oPajvdauMMU5jwrURn74Wtkvot+bR11bXXXkFLbxXmYWQtzyf3i3wy0uKY5p4NuL6UvL17KBjxgMKpfd9WTA3LmR4KhGYyY04gpt09V24D5i8h0X1/1O3hyIH+VYbHkgDjTax6NNMVULRhKTFhbglEZ0xB77oHAmKWs+qp39P6o4cw1fX93GEL7uDh7yR5dny9kccefIPj0lIihPBjElQMJUUGExd7Agp78TpMm97GfH7/d4AR3dRlRF66DN0FJ3FxFFG3q+i882cRNNtVCXac49z+VygfsnUV1IQuvpfwEKC5iOq9G6gq2IfF7GwbU+hTCZmSzcRLlw7VC/aNYTVTVnkFFNZSane9TOn+PNq8L2uAEV36tcQsXIG+q/OM+PX0R7U0btxMp06CoMsIviaNoAHlHEHAFdcQ6Q4obJXUvbGW8k/KsJ9X+VEmphGWvYjwrB4+ciryqX4rv/O+ySpC3UFFSxnmdzb73ToVYTO/zT13rWHJZC20WLGiRo0Vq3Ya337kL2Sv2s66l9fy0dGR7d2jJYfDBxqZvjQECCFxYTYBu3tKZQohZWFmR4Bp2beVsosglh4uAVMziQVaC9fy/lO/xXTWFYApI4i94fesujsbvRIwXseK722VNDIhxEVPgoqhZJyH3t3K357PmfffwGzp4rj2CixH38By9G2UwSNZwB4oUgmfAo7aHE7+42nM56WnOMyFmPcVYv5yE5qQkeqEDyP8ylsIcddyWgspfeu/KT/bxeu3V2DJf4XjhTmEz46XL+8RoWH8rKSOngfrzvWUbS+jq0Fa9uICal4voGaDBuVFksOhjs1kzV33sOrSKNRYqdy7lj+/Vs81f3mQedb9PP/QduLvup9Vl17F/U8v4dq977P2tXXsGbGei0aKd+ZgWXodOkA3ZzmJ6q2Yunt5TTYz5oxw6pN6Cb9a/zDzBhjUdmjZw5O3PsmekQ6CKj7k/Z//EpP3zF/2asreuZ+31Ru499/TCQB0i+9l7t+38vnZES6fEEKMIB8mtVyEQoyo3VfUUtJ5MHOXrNib/agp0FHE2Q3PXRBQdNJeSkvdCJU5fCUTU9x5xVYadz7ddUDhzVpE7Rc5+Flj9sVJGYI6zCvRr7i0y4Cik8aWC3oxRqO4f/sVr/3p59x8aRRU5vHOE9/n+0+8Q16N53/DWpXH2t98n+//7j3yayBuwc38/H//ws+XR41YOdv3beWku8JryGTanMBujw1YsNyT+lS9gyMIJdaAAAAgAElEQVQHJfWpZ20Ur/9D54DC67Ga9S9w2J3ypL6EGUvTR7BsQggx8iSoGErtXpXtYCOBA05U9w27aQOVlf4T5GjS5qHtCNJy+frgQKYlEsPG3o7DK3oLmDhylWVfKz12ijp7PfkfPMN//OBXrN1bSdf/OVYqd73KY9//D57ZeIx6Wz2mYyM4paw1h2P73K0EEUxemN1N9/T5qU/bKB6hjwKbFbAP8sfhg88t61EKd5d2/3hLDscOelpoJszKHPjYJSGEGAUk/WkoVRXR5MgmRAGo5xF3zWpaN2+gqdceC39g5dzxfX40Y5KW4Ni4ji17SR6N/hPvCABqaTnbCJOdKTNBl99I9InX+Hpvbe89FqPdqXX8193raGro403ZUsqnL/2UvHVabN0tkjcs2pwpUFe6UqDmLydWvfXCgEGTTapX6tOxz/aMTPGsn/LkDZ+OzGsNtYojlPU4+LqNimMmWHoJAAExyRiVUNyHD9mq9/6T1e8NSSmFEGLESE/FUGrcQdUJT3pO4LR7mP7j9cy87XHiF63AMCkZVTeTPfmco5LmSj9KdlcYCQ7zXKzWKlPX63kIn7J8fIBWdyUpKJaIH/+CGX9+mMQfXk/EFRkEx4d0P9vTqGbte0DhpamhqZsejeHTfmArJ92VX0Mm02ddmAIVMH85KV6pT4WHJPWpV3VlmHsJECyVVbS6N0Ij0fnr578QQgwB6akYUvXUbnmW8WGPEBXl+vZQaNEkZqFJzHIdY8VWVYj5yCbOfpFLm9+MKLZg9aOYAgwoveo+9qZ+zMcoRs7JzZz5RxTJ300jwDXYdlx4LKHfiiX0W9nOHU21NB89RO1HO6g7drEsUDGKWHM4sq+a2csjgAgmL84kYJ/3IOzOqU/mvSOX+jSatbc09j6Q3dLgOUYZSpAO8OHUx0IIMZykp2KoWXIpfu0+Crdvw1zb1EXruhpVZAYRSx9n5n2PEN7l/Ke+YMXhZ10BCq+70+E/eVmiExutm1/i2ONrqdxXjLW1i0O04QTPzybuN4+RfFPiwFbMHi2s+ax76kme/MMGCv2mYt5G2c49uCei081ZRqx3i3mn1KdSTDtHKPVptLN3dbOff0xbp8Aj4KK++YUQY530VAyH9goav3iOxi+eQ6FLJjg+jfGxqYQkzSckUtsRySkM2UxaXULzq+vGVuNVn75Yrc5x764pdxVB40HWk/Vb9qIDVPzPASqUGtSTktCmJhE8bQoh0xNRd4xO1aC74W6iS39L6d6L9Y6v59he/6uUtx/8kJN11zHbAEQsJXVmIMX7nSlOAfOXk+JesK9iD4cPj2Dq0yieUjZA3Ydh15rATl+y7X4TaAohxNCTnoph5rAUYSnYxNfbn+b4Szfw5asvUuk1dkERvZKoRN+Vb2ic903ZSxK9UtX9tJYdHJXYvAa4B+rHzsxCo5q9BevJAuo3bubs089S+L3fcHp9AdaOnqYQwq6aK60ZI826hyN7q10bEUz7Vqbr9xASO6U+baRMegX7JjSi+8VLXQJCIz0zPlmrsHS1bpEQQlwkJKgYYfbyTRSvfZbaji+XMLTRxj4+u3+V95HjlTqlCESh6ulYLYH6sD6cs46maq9B77Gp9CEU6Sd/vZ5dsHuSKBQ9X2D/0lpL47svcXqDZ1G8cYlJBA/kLUjqyCC0UfzZDk8K1PxlJKo5b8G7Uo7tPOCj8o1CxhQm9DLwWp8Q5wmgK0p7HdgthBCjmTQY+kJrHvXlVsKnOL+RlEHaXp7gZsXhrlsqxhMQqOaCirEvOCxYm8HZbKclMFRLt6lK6lmE9imGsmIxHcSekeWsSxqXEh61jvIhneLfT69nF2yNnnShcWEGAmBUrRre+tVJ2m6KdbbaqjV9jw9sNr6x4wwo1BqUSpCVDQfo0DaOVd/M3AicKVBpgZTpvFKfzuZQWDDCsz5ZP+VXKz8d2dccKqGXkDQ1EFO36WJxJE5P6dhqNX1JTV+DipBYZqTG4vlmqOfUl8epkntfCOHHpKfCJ6IIDPU0cdksfZzZyFFHW0cPh5Zgv1lsrII2s7syrmZ8yvxubyzV9BXog/t2VodpG3Xu96uII/qK1QT25Y4N0vbtxvbb63mh9tIKTxCROIWQcF+Wpv/GRYbQ0TnR1Iitr5MC1NV6jlVFoUke+rKNGdY9HPZKgUpZnN151qfPt0nqU7/EMX3l8u5b5qbexrw090Yjpr17+t4QEL+chx55mIfdPz+9g8tCen+aEEL4kgQVQ0g58xHSr7sDQ1TPPQ+BGfdidNdfHaVYztT38RVKOfe151jt3DsI1/vDxOdNWEqLOraUU24hNv7Ca6CIWkNKdkbfW6mteZzNze9YkE856R5Sr1+Bptu3rEWT/hDpq1f0MVXKX69nFwrzaTS7fg9KY+Ldiwjy9fK8ykSiHr+P6KunENBTWbSJRK2a2fF3t5tO0NLXymvTaZq/dm+EY7gh2/fve9Rqo2znDty3kX7hT8le4JX6lCOpT/2lW/xzVlyZ0sUDmWQ/eDsT3Dd9xRby9sp0ykKIi5ukPw2lAAO6mdlMnrkGe1U+daaDnKsope1cHXa7GlV4CiFTlxE5Lc5TwTq1iYp+pPRYDu6gZfZqNAogJIuU+//GxOICmhstODqWMbZybv+L1FYN7dvrSduRXBoXpRKiBgLimHjLC2i+2kZNWSnfBBgIis0iMiODQEU9lrOgi+nLuApo2/ccpxP+SMo05/GB6Q8wPWEZ9YdyqD9bgq3VCmoDgRGp6NOXOgO6ynV9Lre/Xs8LtBZQvb2YsJsSGQcEzL2BqX/OpqW8FntHxlY7lvdfovJQF8+PSCNi2ZQLAzplFEHuncoQQlZej/KCFeBttOzeTEPxhadVTkwj4s40Im6ppflQAY0nymgpr6O9wQqhoQRNSiMsew66cFc/hb2Sus2H+r5yu72S+t3FRN3qfN/K9OuZ8sICmk6UYTXbPFM2O8qo/8cumvswy+eYdngjpoqbmWsEDClMcO8/m8PhE7LgXb+0tNGuiWD6wxuYMH8t+3cfpb4lEF3SAmasvJ4Uo7tpo5ojr/6BMv/MrBRCiCEjQcUwUUZmEBGZQUQPxziqtmHatKl/KeLlazn1WRrTlqQ6K4gBYWhTsujcL2Al4NQr1FaN4LdY4yZKvsgmbVGys/tLbUR/6R3oL+1crqbc31M67iFSY/p64gpq3/8Ziut+Q2KaEQWg0CUTnpnMkGQA+ev17ELr+2s5E/MDErLCnWPKteFoJntfBRv2HBVdDjqITGPCykX03A8Tgu6K7C5mtLHRULKdhuIe7tSgcILnLyJ4fg+ntzfS+I+1fH20f4nh1s1vUT79h8TMdLaqjwuJQjf3vFQ1+wla3pWgolf2AxzeW8rcVXGddtfs/pAKSX3ql9YDL7Ar6F6unBuCcekPuXZpV0e1UfHOz9iyo7qrB7ul0uroNJdBUz1Vcm8LIfycpD8NIXvxJkr25WGp62U9hdYKzHue5sjrz2Hu9xSDViy7fkL+Gy9SfjSfJnOTnyxaZ6Xp0//meG5h1/nyraXUbnuUwh35fW+ldmsvpXrDfRzZsIG6yq4WFHQfV09TwTpOfrC+H+t++Ov17IK9lobnn+LEC9upP1ZJe5OPR23aK6l/fzt1Rytp77EoNtqLDlD+1DOc3uyZBarPbJXUPPVbTry4nbpDzh6Kb6QCPEBtlO3M6UiBcirl2M6jPirPKGYvZf+v7uSjj010Wd9vOMpXz9/K63/N6frxHkxKm9qpYaPsX+v5XJbpEUL4uXEJCQn9/o4/X1JSEgD19fWYzeZejh4bFLpkgqPj0YRFodIEogTamytoqyqgoaQUu79WXIeCLhV9chrBYTqwWbDVFmA2FWIboumKlPpUxsenoBlvYJwKvmmpw1prorGkEJukGPiGa9E7TUI4an0ICjVgbcZWVUnLiZO0VMi0NWK0C8T4wMfcu9rZy9O68yGe/c2HtAMBMZmkzL+ECeEh0NZI0+k9nNz3JZYBfR5FsvqpP3PrFNdm4+c89+Az7JIhGUIIPyfpT8PEYSnCcqKIMbnWkaUQc34hwxVe2s2FmM3Dd34xAK5F76wnfV0QIUZe+9k9HHt/iFZSD5nBtCTPZtm/1ktAIYQYFST9SQghhPATqqkzmOoeUNH4Oes3nfZpeYQQoq8kqBBCCCH8xKTpnvEUp6WXQggxikhQIYQQQviFSKZPiXT+2vg5H0ovhRBiFJExFUIIIYRfqGLDf61mg6+LIYQQAyA9FUIIIYQQQohBkSllhRBCCCGEEIMiPRVCCCGEEEKIQZGgQgghhBBCCDEoElQIIYQQQgghBkWCCiGEEEIIIcSgSFAhhBBCCCGEGBQJKoQQQgghhBCDIkGFEEIIIYQQYlAkqBBCCCGEEEIMigQVQgghhBBCiEGRoEIIIYQQQggxKBJUCCGEEEIIIQZFggohhBBCCCHEoEhQIYQQQgghhBiUAF8XQPRAMZcffPdHZGkARzWbP/hP3qweptdSLeaRf7+LWQrAcYZ33/0FHzT07amTM/+HX8+I6Pbx5hN/4v6c/diGpqSjjjr8AV5duAKjAipMj3L34XysvixQ8GqeufweZgWApfw57v5iG3W+LE8/qIPnsTIpm9kTUogPNmBQaVErgcoXWbVnExZfF1AIIYQYoySoEGI4KZL5zoxlGBVAWx5vnfRxQAHQvIk3i69lVooRXfQd3Be1m6cqm3xdql4Zoh7imUuXEa/0dUmEEEIIcT4JKsSgmUs/Y7Mj2GuPCn10JlkRwd0+Z6wwxN7ByjA1ACVn3mZLq48LBICVg6b3OJj4ALMCwliafgP/rH4Dk8PX5eqBIoPvzPQKKBxNlNQcxHSujjq7Feu5At8Ha0IIIcQYJkGFGLTq0o28Wdp53+TLMiSoUKRy45R56ADa8/nwVKGvS+TRso1/lt3CrMQwCF3Bdyau59dn/bi3Qp/F/I7bqZ4d++7lqa/9uLxCCCHEGCNBhXCy7eTZN/JQOTewSbPvoOmib2H5eOfvlopN7GjxbXk6s7Lv1A5K4lcTr9CycPINxJ99gxJfF6sbupB4ZwoZgGU3W0ZBupYQQggxlsjsT6KDzdpMs7WZZqttzA6qHjpGVk7KcPZSUM+u4jz/G0TcsI1PzK7fw5ZwQ7jap8XpiUGt82y0lFLiz6laQgghxBgkQYUQwyH0Wi53jaWgeR87av2x66eUHWfdKVlGFk2ah7+GFWqFV8narTJ+QgghhPAzkv40GIo0vnfLz1iiAxzVbP/wP/lb1QDOE30XL65YjB6gYQu/fHcdJ3toiQ02LODajG8xLzqRyOBgVN80YzYXc/D4Vt4/mk91b6243uXuSj+nlB0RqmjmTbuchYlpJIRFEBmogm9smM+VU1y+n5zD/yLP3OzrUnZIi8si3hWy11XmUtDHlnXdqjf50Q8znf+YFWt5/fZfUmbvw/NWb+BHD1zifN7Ztbx85y+p6MPzKir2YUpPJUUBuqhsFqpy2eGP3VTjOm9KUCGEEEL4F+mpGAxHMUerXTUwRQRJE0IHdJqI8BhnQAE0V5so7rYCGkxi2k/4n9Xf5/opacToglEpAGUw+vA0lmT+hKeuWUniRTXlpoqYlLv47S1P8ePMK5gXHU2kRuW8c5Uq9PoEZqWt5sc3/o6fz0nDL4aGK1JZZDS6NpooqOr7NLKWndsocx9szCY1LbAPz4pjWmZ6RwtBze4P+xRQANCcx0H38ATVLBZF+mtfhRBCCCH8mQQVg9LMicryjq2YqMmugc79oWJKVHTH1tnKk92OZ9DH385DWRnoFYCtgSpzOWfPdW6dD45ezQ/mpfRcDkc1+w5t5IMDXj9f5VPld3nqKhJn/IRfX76YRI1nb7OlnOIqE8W11TS7y6wIJX3uT3h8ftoA/gZDLHg+s7Su3+0mvupP6lPdFo4canNtxDFt0ZzenxOx3Cv4KOXYzqN9fz1HKV/VuaMKLWmRGX6bAiWEEEII/yXpT4NUXX0SMwnogeDwBGLYT3F/TqBIIDHc1b7uqOZEZTc5Rwo982cvQPVNOXm7/s7rxwowuyrUweFXcOeVa8gKdVanY1KvZv6BP5HbbRpLNQcPb+Cg9y7VYhIzMojsT9mHWXDcbTx0maf3obl6J//YtY5Pq70CKXUCSy69mzvTElChIjHjLr5T9l/8rdx3OTy68NSO1CeaTZj6VZRqCnMPsHyuMwVKf9kyjC/t6bHnQbdwObHuSKBkK4Wmtu4PvoAVU50JEjIAMIRnEK/I8+81K4QQQgjhd6SnYrCqTRS7K436BBL728wbmEiia9pR2s9woq67A1WolM0c/Ox3PFvgCSgAmmv/xV8//hdn3fvUacwy+ry9fnCUadyUtZhI1x3a/PUGnvjwtc4BBYD1DJ/u+h3PFlY7txURZM+5goiRLW0naWHxHa391nNF/a6gt+7cRrF7+tmYbGZM6SkFKo5pC71Sn3K39j31yaWusYQK90ZwCml+mD6nC/Dcz1aHjKgQQggh/I0EFYNlM3HCPS2nMpHE8PMPUKEPjSZGH03M+OALUnNU4fHEuCtxtSZO9lQhrN7Cmye67smw1X5Gbq17K5iYCb6sVg9ecPJyFrqHqNhNvL9zI8XdXptmDu7fylFXcKcyLiBrYMNbhkAY8bqwjq265or+Dypu2MKxw54UqJTs9O6P9U59sps4lvNlf18Nmiupcwc+46JIGN/j0T6gJX68oWPLYq2TgdpCCCGEn5GgYtCqOdmRshRK0vmVec1ifnDjUzxz81M8c8PdzD8vqoiMSOwYpF1VdRIz3Ss+vZ+zPZTjbL2nFV+v03d7pP8LZv4kr7Snkn+R09tMVM155FW6B81Hk2700ZBthZGJXuM/6lrqB3CSagp3H6DdtTVh3nUYu+k90C1c4pX6lMPh4gG8nK2COnfApjBg1PjZqIrg5SzqWEPDSkm9yafFEUIIIcSFJKgYAqcrizsGV8dEJnTqjVBFp5LkrhCqJ5Me1elREiPcg7SbOVN5podXaeZsXXUPj9swt3lWGVYHXNgrMmooEpkS4Sn96bICep8stoGzHVPKqogIj+7x6OFjQOd14a22cwM6S+turxSo+ExSU7pKgYpj8sI5ntSnzz+kpp+pTwB8Y+GcO4JBjS5I29PRI0YdaCQteg2/zLydWe432ZLLh+WymrYQQgjhb2Sg9hBorjRx1pFBogKCJ6QQo9jvmhZWRXrMZK9pTkOZHJsAZa6WVkUCkw2uGqijnBOVPY3obaLJ2suIX+/c/dEcLgZGExHk3rChn3g13+luTQ0v2nBPbV6n0aOCkV8ZfJwadUevghVr+wBL0LCFwwcfI2VBIJDCtMXp5Bw/L7XJsJzpXqlPhz/px6xPnVixeQUjaoUOGEgPy1AI44aFb3FfF9l7lsYcXt//HLv9cR0NIYQQYoyToGIoNJk40YRzwPX4BKYE4mxlVkSTPjEUsFFcVU1iZDQx0WlEYKIaIGgySe789XMnOdHaw2s4wNbew+MXk8BQPG3lKmJSriamn6dQKf2kn2Zc74d0rRrTzj20L8gmAJgwfznGV7/sNAi7U+pT8VaOlQyuqP7Mei6Xfx5ey9YGGU0hhBBC+KPR3J7tPxwnOVnjaj5VxngGa2szSA8BHGfI/cLVe2FIZbYr514VkUCMe3ajHhe9G2MUjN7UrW+sWDsq/mrUgwhuWvdtw2RxbcRnk5ro/WgEk7M8qU8Ve7YOLPUJADUqrzEbVoel+0OHXRMFpetYf2ITG8/kUmBxpjqpx2dxZ9YLPJ+aQR86rYQQQggxwqSnYkjYnIvgJSUAoc5xEmXlBEenOoOG6gIOVuajb1xJoj6R9GgV24tsxEQkdKRG9bTo3Zhjs3muheMM7777Cz7obaC236ijzga4spJ0qvHAAMcANGyh8OCvmbYwEJQpTMu+hJwiVwqU4WqmzXSnPh2lsD8L3p1vnI7xHbGPFUurL8csWCk48wYFHdtaZqX+nienJaNGS8qUH3Dj2e/xeqMPiyiEEEKIC0hPxRCp9pq5KSbCuRBbemwiKqCqPJ+z9jMcLG8Agpkck4aKYBLdM0X1tOjdWNRcjbmj1T0YfU/LNPgbRwW1LZ5NnSas+2N71cix3XtwZ8VNuGw5E1w9CkELl3nWRCnO4cjpQbyMyojB/UngqKOixZ9SjJo4ePxltrrH4CvimG+M82mJhBBCCHEhCSqGSo1nETyVIYVE5WRmG4OBBgrKzgA2TpSdpBnQT0wlUZnIFPfA4h4XvRudbA5Pv4uqv3eZ/QzF7pZoRQQxE3y26MQA1GOyeAY5G4LjB5Wu0753G8VeKVDT4gEiSPVOfdq1tcepiHuljfIEFd9UcmZgE1YNH0chX9V5ek+MOs/igkIIIYTwDxJUDBWbiRPuuuT4RKZEz2RyMGA9yVeuWZ1sZw9xwgaEpDF7Ygox7tyn3ha9G4WaWjyTwKq0EfRvktJyvir3TJ87JSXTpytk95epvqRjcTb1+DjiB/NfZtnC4YOuCEuZQuridGfqU7on9enwYFKfAMP4eIzujWYTBX53L1qpa/FEOmqVhBRCCCGEv5GgYshUc7LKlcKkiGbWjDRiFGCrPNSx0jPWgxytdj6ePjOVRNfV723Ru9Gouv6s5z1NmMn8fq5Fd/LY3o6B66qJV/Pd5H70VihVPh3obaktpMQ96D44hZRB1YEbMe30pEAZM5cTu3AZie4F9kw5g5z1SU2KIaVjq64u31N2P2K1e3q+1OMkqBBCCCH8jQQVQ+hExyJ4waTHJQBQXOK9cFsDB8vOAComx6W5Kr69LXo3Sn19iKMda9Glcf3CK4jpZlXoLtVt4f2TnpXK5y1+lO+lRPcYLKiCU1gy/yc8c8NtpPvyzm7ex0F3to4yhdmGwVWC2/du9cwClXgdK1Z5Up/Kdn04uIBUkcxsg7sfqYmCynz8aUSFEEIIIUYHmf1pCNm8FsEDwFHO0bLOq2CfLSugam4CkV7H9Lzo3RAbP5frU1MuTEdSRNOxBrVCT/rMNWjbzj/IRrFpA7l9Gf9h388Hh84w/zLnCuP6pNt45vblFNc20PSNp9p68sDvebe8qxM0k7fnVbZH/Yir9CpQRbPk8t8wa0Y++04d4qTZjNkGwRo9kWHJTIlOIz0qgmAF0Ly3L1di+DgK2VVRwQ3jjYCWtKgM1OV5A6+st+RQeKCR6YtDQBnHhHjXfvtRCj8zDa6swRnMct8MtgJ2VUlIIYQQQoj+k6BiKHkvggdwroCvzp/6svYQBc1XE+kevdvYy6J3Q02XylWzr0Df40GhpKddTfoF+20crNtIbl3fgqCzh//EXw0/43tTIpw9DOoIEid6j46wYSvsYd1raz5/2/QXWH43V0UEAyr0kXO5KnIuV/WpBL5TUJpLSfJq4hVgiMwiTZHHwQGnFblSoBYvJ8h794mtHDs7uHIaJy4kxRXgWipz2CfzGgshhBBiACT9aSh5L4IHmCsOXbigneMkX1V4EqKaay7iRe8c1eTm/IJffrKR3PJyzNYB1Fib9/O3Dx7l6T17OWnp+fnNDSbyDq/j2c1rB1GBHyINH/FJvavVP3g+SycMMgVq31ZM5806XDbYWZ+I4+qYZNfv9ewqzsWXy9716Buv3xXI7E9CCCGEnxmXkJDwTe+H9SwpKQmA+vp6zOaLbcix8B8q9OFppEdGExEcjHocWNsaMFvKKa4uptjS3PspRpAu5nH+Pj8LHWApe4Lb8vys0h56D68ucfam0LCOu3e8waDGfA+j+Mkv8Op0VwBU/Qo3797ARTYLsxBCCDGqSfqTGEVsmGvzya3N93VB+sTy9Qa2nsvihvGgM65gqSaXjS29P29kqFmYvNQ13W0Tu4+v99uAAqCurQ4ryc4eCm0U8Qqo83VvlBBCCCE6SPqTEMPFUcg/j+U5eycCMrhuUqqvS+ShWcZ1Ma7Vvhs28ebXTT0f72OWhhIqOqbpXch1xsGsVC6EEEKIoabU6/W/GuxJwsKcX/Ctra20to7kqGMh/FuLpYTgqCuYoVESqjNQU5qDqd3XpVIzK/URbp+gA+rZ8eXv2djLeBWfs7UwMXYZaYEAGuKjl3NVxHSmGVJJn5DBXE0Lhxtq8Lt1+4QQQogxQnoqhBhOjiLePLzN2coeOI9bJ6f6fpBx8Aq+k+hcQ9tS/gYvVfp3LwUAjkLezN/gCcgUWowR81iatIIbJq/mhpgU319XIYQQYgyTgdpCiFFDrclg+aRlXBqeQrzWgEGtRa0AKl9k1Z5N/jUQXgghhBhDJKgQQgghhBBCDIqkPwkhhBBCCCEGRYIKIYQQQgghxKBIUCGEEEIIIYQYFAkqhBBCCCGEEIMiQYUQQgghhBBiUAJ8XYDRTma+EkIIIYQQY530VAghhBBCCCEGRYIKIYQQQgghxKBIUCGEEEIIIYQYFAkqhBBCCCGEEIMiQYUQQgghhBBiUCSoEEIIIYQQQgyKBBVCCCGEEEKIQZF1KoQQfiKciKd+QXRy90c0/vU/Of0v29C83Nzbmf7IHJQAFTmc+PEHtNiH5tRCCCHEWCM9FUIIIQZPvYRfbdzM5vU/J1Pt68IIIYQYadJTIUYHRRaTfvw4EcGAo4KvX7+TknJfF2oU88vr2UzT7hwqj3nv06DNugyd3ldl8qHJ1zP1yWyCABoPcPr+tTQOUSfNmJT6a370wu3oARo+5O01D2Gy+rpQQoihF8Lsp/K5dr5zq+yVK3n9bZNvizRGSFAhhPATLTRv/oDmTvvCiZg2RoMKIYQQYhSRoEIIMTZ99TZH7/wnCiVgb8cu4yn6JjSTBx/NpvTtF3nvUH2fnhI2+2YeuMnA9if+TF7TMJdPCCGET0hQIYQYm+w2vmmyIbFE/8StWMNVM5NhZgZLdqzlxVc+4lhDNweHZfDte+9nzeI4tFgxXPMeee9Wjmh5hRBCjAwJKoQQQvRZ6du/5LGWe7j75iUkL72fP8y5iu1rn2A5e20AACAASURBVOeVHd5HaUn+t3t48N+vIlkLNBTx6buv8somCSiEEOJiNS4hIeGbwZ4kKSkJgPr6esxm86ALNZqM5ffeHVXMMiLmZBEWm4JmfBhKNTjarXzTXElLTQnnSvIxF+ygsbabPAj1MqY+/BD6Ac1NZqX2nzdiOtbLCEz9atJ/cA86BeDI59Szj1LdDATEoZ+/mqjUDLQTjKgCwGGtp62qAPOxHKoP59LinfTfzwHP2stfZ3qmEQD70SfY/15uH9+XFs2U5URMn8f4ifFoQsJQKlxlqy3BUpxLTX4313Qkruew6TzN7ICnlI2/him/vwqNspvHBzOlrFKD5rJFGLLS0SVFERiiYZwKvmltwW6upbWsDMvRAhp25dPa2M05vKe37S/7CUrv+1/qujv3cAlN5qo1d3P78gzC1FB/rAjrtGSi7JUcO6Vm2uQwsFaS/39refWtTykaybSnBc/x8BPXOQe595d9Dx/d+B2+6q73ZaxRZnL12jeZawRow/T8It7eWN3789TZXL32NeZGuJ73zCLe3tqH5/mT6bfy82UqPt+2hc+OVOHf8yR0MzjZkMnsG25j1oI5TDBGEKRso7XaRNm+D9n195cpq+vHSygjMC69ndmLM0lMSUFvCCGANlrrSqk5vofDW//Owb0m2rs9QQqzn9rAtfNDAGgv/AMvP/gCNT197moyufJPr3FZUiAAlr2P8vLj72DxOudlL37MlVP78T68mDfexZ+ezxnYk8UFpKdCDJ2AOMKv+W8mzYy7YK5iRYAaQuLQhcShm5TFxCV3UP32rZzyo+lXFJErSL7xHgyGzvNhKoLC0MRnoYnPQtt+K4UH+pZHPmTlil5B4oo7iIjUXvhYUBiamDA0MRlELLiDpv3PUrgtV1J6RkpEBtE/uYWIZM0FD40L0hBgjEVnjEU39zKMtxZQcv9L1I905X+4NBSx/aXH+HRTJmvuup1VC5IJA1BGMW1yE6W71vLq2vfJK/ef/3ExAPYDHN5bytxVcUAgiVlXE7RxLa29PW/mMqZFuH5v2cPhvaMsoABUKj2TMi/nksyV3HH2Sz7b8QlbP/6cslEyLihoxk+58dc/JDHUe28gQcZ0Ulamk7JgAR89cj9flbT1eq6Aqfey4uGfMt1Vue90vogUYiNSiF14Mwv2vsA/f/cCFZauzmLiqz/+lpQXf8c0AwSk/pBVt+3h9b992U0gEkLi3b/rCCio3sqWP3oHFCNPP+Uypk3wbFurjvGlSRqU3SSoEENEi37Zb0iZafTsam+irbaEtiYrBOhQhhjR6LWugEOForu7r91E9WfrOOfdbKuIw3BpFtoAgCYs+Vup73J+zTZaqwZQidFlM+mWBzCEeO1zuF+7/6cbKsqUB0hdvQKtd5zjaKKtpgJbK4wL0hJkMKIMABRatAkpqMmlxfskvrie/sZ8kppNoPLaNS4qjcgFsYwb6DlViRh/dhsR8V5nbaqlpaIWexOgDUYdEYU6xPW4IqD71yrLp/KD2k632jjDFCZ8K9HZe2GrpH5LPm2OLp7bXkFLSxf7R4i1PJ/cL/LJSItjmrvyUl9K3t49FPgqoCjJYdfbVXQK9SZkMvfKdGfvhdXEkfdzMHd5PYv42ofX0/+0UbYzB/Mq53S8AenLSA1d20tPTiCJ31qKzrXVfnAbplHe86ONuYSrb7uEq9eYOb7nE7Zs/T8+P2H2296LgMibWPXre50Bhb0NS0UprYSiN0YQ4P4uiMhm+SP3cvrBFzD30BIVNOsxbnviXoze/1CWUirOVtNOCPr4FHQagED0C37KbU/A64+8QE1X//7V77Dp+QUYf3EdemUgxpt/z6IvriWn8MLAJmj+Y6xYGefcsJey/48/49gFPStVlG19md1feu8LxPit20mJcRX14DscLOy6NaflaH+mmlUx56aHeWC2Z0/Tzie5+/996bf3wUiToEIMjfAbiJ3lDiisNO17jqKcHFrO/1DRpWJIX0bU/Pndn8tRRN2uos77FFkEzXZVgh3nOLf/FcqHbF0FNaGL7yU8BGguonrvBqoK9mExO5ujFPpUQqZkM/HSpUP1gn1jWM2UVV4BhbWU2l0vU7o/jzbv6xpgRJd+LTELV9DlzKsjfj39UOMJ6t460Xnf3HAmLIgdWMoREHDFNUS6AwpbJXVvrKX8k7ILZpFSJqYRlr2I8KwePm4r8ql+K7/zvskqQt1BRUsZ5nc2+906FWEzv809d61hyWQttFixokaNFat2Gt9+5C9kr9rOupfX8tHRke3d4+yHfP7Kh533pf6a6e6gouUoh//2W1mnoq8KtnGs4nYuMwKaOUxbGMFXm3voeVBnkjrf3U3Rhmnnjt57NvyQregT1n8UxuULZ5Ckd/2vq/RMXbyaqYtX01T8OZ988glbcr6kys8C0QnLb8eobqNi82/Z9Oo7VDS4Ku2GTC57+DmudP19AlJvZ8Hsl9myv5veioibWfFzr4Ci7kt2//kX7Npx1NO7oIwj9vrHWHHPciaoIWjGD1l1+x5efuXLLk/ZuvsXbNp8CbetjAN1CgsfeYyTD/ySMu9rGLqcKx68Gb0SoI2aDx7l431dBQaNlG38LWWd9oUwO9kTVJj3v0KOrFMxIiSoEENClZKB1t3MWvkeRdty6PIz1lJI3ReF1OVpUar95BtdkUr4FHDU5nDyH09jPu9zy2EuxLyvEPOXm9CEjFS/dxjhV95CiDspvLWQ0rf+m/KzXbx+ewWW/Fc4XphD+Oz4HvJZxdDRMH5WUkfPg3Xnesq2l9HVADV7cQE1rxdQs0GDcpSkTfRGHZvJmrvuYdWlUaixUrl3LX9+rZ5r/vIg86z7ef6h7cTfdT+rLr2K+59ewrV732fta+vYI6lQHdRzH+S1X1/lTBkbjEN/5rv/9RHDGrb9/+zdf1yV9f3/8Uce4IAQIgJigEIeBTxQCuqUNCNz4aeZc2792nKf1o/v3Gzbp9Zqte9a3lar9am171ptaWtzn1r1mXNaDZwpmYZOhTR+53GQgKEovwKBA8e+f5wD54CA4Dn8ft5vt7qd65zrus6bg8D1vN6v9/ttyyb3gzIWrHaUQC1aju87vZRAzboeU3umaMiicASWPgFQX0z6K4+TvsmfmC+ksfTaq7n6ikj8HXci/KMXcOOdC7jxtlPk7n2XjIwM9pcOjx9yLx8jtRlr+fOzGZ2/T9VZ7F//U0JeeZE5oQChmOYnw6Gsbs4SStw99xMX7Nisy+TtH6zlw4ouAcRWRvnmtfy5/g/c/VAqARgJX7GOhP/9Fnnd9lDVU/rSQ+xN/AOLYowwdQ2r1r7Hi89mOv5+hRL3/fXMcdynbDu2iS0bs/S3bQQYwsIOGU2MQc4/jbbTlu4DhatzjdiG062rc8eo2PzceYGik7YymqoH6aJo0o1MMbWPobBSv/uX3QcKV9ZjnPlXprphB4MhEJ+JzrIna2lZt4Gik/qmUbEWRtR//Iw//OYRbv7CZDh5kDd+/m2+/fM3OOhS62A9dZBN67/Nt5/8G0dOQ9TCm3nkt7/jkbTJQ9hyuXgtVGZm0l457pV4DaYJPe1rJHLJtR29ps2Ht2MZyiJ4T7A1UpK1mY0//z53rn2Y517fSe6nLr9p/cJIXHYbDzzzMi8/9QC3LUskyLvn0w2Kpiz2vpzRffBryuTwvrKOzaDp5u4nNYi4mYWL2tNhPZaXHj0/ULho2PEMB4sdGwEpJHYc23379jy9gUrHr42gtMdIc+wfsOwpli9xHNuUQ+YvnunYT4Y3hQrxiM9dbiEYgqLoOpRruLNZNnPy5PD5reU3a56z56fhAz49XDmk7ZEubG2cc7mm8Joydi6Wy4r+TbWthiN/f5rvffdnbNp3ku5/cqyc3PMyD3/7ezy9rYia1hosRZpStp21/X829/6z2ujh8/ewj7dTVOF47JdC4sIeLhgNKSTOd16Ilu5OH5GlTz1pPVPMnv99gZ+tu521j77A5r3FLqVP3gSZFrD62z/j5Zd/zSN33khSxPkTbAyGtuL3KOxxZqcWKi1lzjv/E0IJ6KYONGBRKpHt5bfVmezbVXb+Tp3kU3SgvczISOTslF7LYdqKn2dL+yBtQxRz1q0nLn4NK9amOsbj1FP68oPsL7nwQHIZHlT+JB7RVFnGOcLtKTXiq1y++BiWfQdpHRH9lVY+Kz4wjGZM8md8ZFTHlu34QeqHT94RAM7QVFEPM+wj+32Xfo3LPv4Dn+47c+Eei5Hu36/z4ztfp7Guj/8om8p47/f3c/B1f1pH+GBdjzr0a76x6tdD3Yq+s2WTu9+1BOpafDPeOD8wJF6PqX14XUMWud3WwY8GrZzK28lreTt5zS+SpNSlLF1yNcmmIPuEEP6RJP3HN0n6j9s4teM5fvi7/QxmYVRDSX6vYa6trp42HBeBfsZueioCiZ5ldu6fm0l5H37ka0sstGHCC/CNMBEA9Dw3Ugun33iQjKTNfGluIISmserZVLwcQaZh3xNs2TKcxkK0svPnq9k51M0YxhQqxCPOHX2LM/XzCA0E8CfwmvUkLaikofQINZ8UcraigM9OlmEbjiHj3EnOnhwedbAAjAtn/ETndE/Npyx0N0mNDK2GHdk0L07F1wD4RhL6Xz8lZE059flHaSwqofHjEpqO14/CkGGl8SLCQWPdMPoZk4vQQuXODE6vvpsQwGv29ZgC3iCvU2mTkcglKc7Sp+yMkV/61BdN5eT840/k/ONP+EcvYGnajay8NtYxyNibsCkTGexqqOaGC/yQ2lzv/ndTW2CIImiK8/m2sFRS7zFfcFyDV7jJuTEhkAADvc4sBRY+/G+XaWZ9hs/0sdJ/ChXiGdaDlG55Hb+v3ULAeMdzvuEExIUTEHe9fftcI03lBzh9aDMn848No56BBqzD6nonGIPL73hbY39WJ5JBc/QdPvmfyUz/xqyOKRovmRTJhKsjmXB1qv2JxjOczf+IM2/vorpotN6xlTHDkkHR8btZNBXwSyF+YSB5O1z+XRuSiZ/f3staj2Vv5hAOrvVn8ff+m/9M8Ol5F1sZ//jFz9h83EPvOHUBS5cu5eovtAeKodPW4m7JUBiXulRu+cavZEF8P0/hY+zbRWbVG6S/fhOm7yQ59m/B8toT3UwfK8OdQoV4zLnjfyL/94cJTVnNZPOV+Ad0+WU+zh+/qalETU0lPGEjhZs30zQsei6snBtmXQHjXEY7nRs+6Us6aaX5nd9TVJRM6KqrmXhFND5dawj8JzF+firj5y9g4l9/R+mbpcMoTHuY9Qiv/+Jx/kk1hSrXG51sORTus7Boqon2WaC8drzhDA6zrifOpfSpcN/QBumAoDCCJvW2RwNd/0z1m38kSUu6lD51aKX24/3s/Ed2LyVAw9hgBaOAVBZ/KcnlgtRI9I13EbmjyzSzMuwpVIhnNRyh6p9HqPqnD4ZJ8VwaGc+l02YxIeZK/AOdv729Z97FjGst5P3zyNgq7enTL2krbVbA0eMzzvdSGNRqXOkP27FsKv87m0qDHz6Xx+AfH8P4uJkEJriGDD8Cvnonl5U9Qdm+0fpXsoaifd1NSyndGVFTyrqo3J3J6a+aCDGAr6MEqqgB7KVPqc7SpwMZWEbrP3W8CbvyOq67djFLvxB7/kxPjeXkZu0k4x872X98pP7ubrH/HXIo/fV8/rxtIKYGDsW07inmTu38rFfMGlat3ceGrlPiyrCmUCEDxIrtzBFqzxyh9giU4Y+f+ZtEp60g0HGx7HflCoLeO8JgzdI6MLo0/gLLMxu8+zAv1rmTtJ6F9r/OxqDJgGZ/GvZsTViPFmA9WkDNtneo8J1E4I1fJWLVLHwMAIFM/OJcPt23R/Oty8jVXgIVAwQkkzg/kKJd9fbSp4XDpfQJoJH09atJ9+AZvcMSufrapSxdsoDYsK5JopXa0mze/2cG6btyOTXS5/a2lVFTDTgWkPOdEAZ4PlQELHuKFcvap4/NZ+9L2cStXUOIDwTdsJ7l2dls2T1C1zkZgxQqZJA00pT/AsW1kPCfK/AbB/hMJyAUqisueDD9vXgfPC6lU+OMjOt1NJ5/p/U8elZNY1UjXGYvaDVGxmPkCJ6dVG+4fp5dtfK5S1fWOG8vGCkrcTSfof7N32M99wAzb4rkEuCS6BjGe+/p/8rYQ1yfPVo4VwAeaZNeDyO2HHL3W1gUYwICiV6UiteurbS5lj7VjaJZn7yDiE1ZytJrr2NBfFjHwncdmk5RfOBd0v+xkz2WEVnk1INTnD5eBYn2C/4gUwJe5Hs2KEa4Th/bQvmfHyRzm4XCsGTuuNWMF6EkfP8pjhZ8i7x+5grXX7FeutIdNPqoZVCd+/QgDWdX4BcAjDPiZfShb7OsWznX/tts3KX9OG6AnWvAehbsvxX9MU7wp8dSJZ/ZTAjv/qXOrDRYDmO78ir7tWT4tUya/DonPDrF/zD9PM/ThK2uFRyVyl6TJgHlQ9qi/mr+8CgtN0Xap2z08et7Pmht5XMb9kDh44fBwIjJU8OStYW2js/TaJ+1ayibc+jXfOOGETSlrIvTmZlU3mQi3AC+yWmY/DJocC19ys6gdDSUPplW88QjtxEbeP5LjcdzeH9nOhmZOZSP1AqnXrVQfiCb5hvS8MVe6hY34Y0eVsi+CAYzCx54uGMRxebDz7Dlr/kAVG76KXuSXiM11ggTUln+0N2U/2jDBWaR6tz2NmsL7bNaefl18w28SN5TEkme6jKCvbGc7Lxy/Wp20OJ3Mrh8w/FurzM/10BrYx8vZM9V09Ixt5w/44fNYmOVtNS2fw0+XGqa3+MPlXfCCoLG9/BiF+cs26lu/3rHRXHZdasx9uWn1de/bz/Uw/bz7KqVphPOKUB8ze2lRCPHJWGBzsGbjfW09nUQUfUZ577ek/Gb7vm2jSmny2lovyjxMTElVr0VF610K4WljscBKcQvTOk869PuoS598gzvSycz2fV6tLWW4r2beeEnd3Lnfz3OxrdHa6CwazvwJnntlbcBqSz+z9TuV97ujsHYMSve+YyE3/4UqYmOn8GGLN591iU0WHPY+/TzHYO0fWffz6qbzN2eqScNVac6HgdNT+h7uy9g8pJv8sCPHnD+d89SIkfY36SBpFAhHuBD0PXPMuPa68+f8amTiQRd9xWC2vvHzhZQd6av71HGZ586hyL6z/0mk4LcnbbDExppKDvWsWWYeSuRU89fQXXc5FswpV7Z97vU1oNUfHCkY6Ygw+V3Ef/lFfj1+CX742f+AebVK/q4mvlw/TzP1/yvAudAvenXErUqeuirgQzRTP7J/+Gy5TPx6u2vlX80k1dd0dFem+Vjmvp6t62xhLOftm9MIvirqfh66i/jWNSQTWVHqWUUs2+/mxC/oWzQCGbLpyirfVGyQEy3PUyCo/ae6szRU/rk0PhpLjtffZof3nMnD//qNXYW1o6NO9PWTPa8ltXx+zfkxue49Ttp3a6+3cHPRPSqx7j1lc0sNnX/18hr9sOsutnsKJWpx/LSQ3zYtQy65Hm2vNz+3kYi1zxHanxfbwS0UFlg6Wi315y7uG5RVK9HiGeo/Ek8w38qweYfELzwbpqOH6a2tJDGk8dpaWzgc+8AjJOuJHh2GpMua7/gttJwYDP1/bid1XB4F01zVtvHYwRehWntH5lSWsDZ+gbOdawwZuWzQy9w5lQvJ/KwlrwPqF8cT6AP4BXFlFufx+/D7ZwuL+Nzr2B8I68i7MorMY6roaECAiL6Nt9Ly4HnKJn2LKY4+/5G83dImHY9NR9lUlNxnNZmK/gEYwyNJ8h8LcGT/eHk631u93D9PM9zdBdVHy4gao4f4EfATf+FeWk5TVVnndPt2iqo+n9/p76baxnDFYsJvaKbeSVDI513VS6dQcg3vkxr1wv+c5XUbd1PUzd3Iw1TZhF6xyxCbz3D2Y8KqP+4nKYT1bTVWWHCBHwvn8XE1GQCJjn6KWwnqX7no75PKWs7Sc3eUibfFs0lgMH8ZWY+v5DGj8ux1rY6Z007V07N/+zhrKZI6Z0tnw935rPgLvvFjO/s+1n76kpKCyzUVNc5vy+2Y+S+tEFTWV7A6d0ZVN62zl4CFeNc8KwhO4PS4VhJeRFaK/fzx/V/Zf+RU2MjRHSj4Z2HeCt5M19bEgoEErn6Re69Kofc3ZmUFltoaGzByz+MSy+bRYQ5mRnJZsc0vWXdTy8yIY1lD9gHYgM07H2Ct94p6/a9a7c8yrvzN/Ol+YHgY2LRjx6m5N5HKe3Dinht+96ksDqVOcGAIYo5j+0gpjib8uNVNFudvyybD28kc9dwWrV7ZFOoEM8a549f9FX4RV/V624t+S9g2df9L5IendjEv9+fRdw18fY7v14T8TddRed+ASte/97ImVOD+Fet/i2O/yuVWYun2y9SfcIJ+sI3CfpC53Y1fvAUZZf8gPiI7k9zvkrObHmQcSvXEz0rnHHAuIDpTEqZTq9Tr/fVcP08z1NP9Yub8P3Jtwidar9Av2RSJONdPwSbD3U9DJL3jlvA5Bsje38L/0iCb+hmH1spbdu7DxUdfCcxfv5ixs/vZR9bPfX/s4lP8/t3aWJ95zVOJKwj4gp7DcYlgZMJmNulVM32MU1vKlT0Re3mB9kx+xWWz3XMNjPBRPRCE9GuO9myqPyjQsUFHc+gsHQd4Z3K8qo4OkpKnwD4NIc9n154t9GtjKIn72CL9UVWLIvCC/AKT2LOzUnM6fe5Qolbt5657WMLqzNI/3Vvq2Zb+PBZ52rbTF3DinX72PBkH6aZbcrg3WffIOqnNzsCjJGg2BSCYjvvVmvb3q9Q4e/f+S9ka80pakbt4kP9p/In8QArjTl/4dP8QprO9n7xea62kJPv3Efu37bT0u8FKqw07LmPI396gRP5R2isbRwmi9ZZaXzv/1L8QWH39fLNZZzZ/hCFu470f+GztjKqNv8f8jZvpvpkY89rerTV0FjwOkf//lf6fi00XD/PbtQWcOLHv6Dkzf3UH6/HNtS3DW0nqdnyT6rzT9LWa1taaTuWzYlfPE3JO+V83tuu3R5+ktO/eIKPX/gn1R/Zeyg+1x+wi2fN59DDN7Dh6Q18eCif2mrH4G3pP1s+eXvyOz9XnUVetmfnqZNhwJpP3pPLeHH98+QVV/UaGtvqyijdtYG3f/wt9hR3/rcQkPYUy691BHqq+PDXP73wqtlVb5D+YkZH8Ahatp4V1/atlKl530NsuGstO7ZlUl5SRbPbNwrCSDCFuWzX8v7f3x2ZCxsOkEumTZvW779zXcXExABQU1NDbe3Y+njH8tfePR8Mk6bjP9mEX1AwBh/A1oKt8SRNFYdpOFkzuhe7C4gnaPosxk8MgNYGWs8UUGsppNVDt+4MQfFcOtWE36XBXOINnzdVYz1jof54Ia2jpORgxHEseuc3bRI+QYGM8wGsZ2k9dZKmj4/SVDnUCUhExHO8wlOITjQTEh6KnxFaG+tprrFQeTSfymNlo6enqqvApTzy0ndIcvSKtxb+ie/9ZBtDWR083Kj8STzMiu1MIfVnChldQ/X6qKGQ2iOFA3bnwlZbSG3twJ1fLkLHondD3RARkYHXVpmFpTKLsTYSwTs2kdiOMttTvP+/6QoUXaj8SURERESkF5cnxHaMOWzNS+evR9QL3ZVChYiIiIhIj8JImNk+nuIU7/5NvRTdUagQEREREelJYCJx9iG0tOZtY5t6KbqlMRUiIiIiIj2p38njt+wc6lYMe+qpEBERERERtyhUiIiIiIiIWxQqRERERETELQoVIiIiIiLiFoUKERERERFxi0KFiIiIiIi4RaFCRERERETcolAhIiIiIiJuUagQERERERG3KFSIiIiIiIhbFCpERERERMQtChUiIiIiIuIWhQoREREREXGLQoWIiIiIiLhFoUJERERERNyiUCEiIiIiIm7xGuoGiIgMqvjHuPf5NQQB1G3lL7f8AIt1qBslIiIysqmnQkRERERE3KJQISIiIiIiblGoEBERERERtyhUiIiIiIiIWzRQW9wSsOpV7l2XYv+HVLmJV9Y8SrmtD8et3sy930myH1exiQ13PEplH44bPoJY+t3vEvvpTtLf3U9J/VC35wJ80lj1+oskTAAoY/+6ZewobMFr+s0s+NqNJM5OICg4EC9bPQ0VeRzd+Wfe25xBQz8GMHtFpDF75UriZ5sJuSyMAD8jNNVTeyKPkgPbOPS/b1BZ18vxsx/j7l+uIcQAUMWHj97A23uren3PgBv+wNr7UvEFsFrYe9+XyCxsce6w8Dke+PlK++vdmbCSW9NXdv+aLYu3v/Z1PuylzWNFwKrN/Ne6JADaDj3Krx7cRHO/zxLF3GfeZ/lsgBYszy7mL+/0/v0VEZGRQ6FC3NKwezvl96QQ7QOEpxI/6wnKc1sucFQUcSnmjn98p/duHWGBAsAH/8gkll6bxNKbain+1052ZvyD9wtraR3qpvWJkZBVL3Lr2lSCDC5PGwIJiElhzl0pxM99hj//+HkqLxQsDFGY7nyOFV9NIsDQ5TW/QIKmpzBnegpzVtzO/mfXsmN3WbenaTv8BFveTOaOW814Ecqc76/HUrCWouoe3jfiblbc4wgUtFD+2oOdA4V4TENBNqdJIgTwunwW4QYo7e/PrI+Z8BjHY1sZZQUXCBT+kSRdGYlPxxON/PtgLqdGxg+YiMiYo1Ah7qlOJ++jh4meawSiiFuczI7crN6PCU0jfpbRsVFG0e78gW7lwPIOInbRamIXreabx3N4f2c6GTtzKG8a6ob1zHjVem69yREomqqoraqjzS+MkNDAjn18Z9/PqrtyePGFXr6fBhNzfvoaX1oU6vJkCw3HLdQ2gldgFCERgfZfNAFmFjzyKkbb6h56IFqofOVBMmdvZlm8EYLTWH7fzZT/5A0azntfM3Pvux9TgH2z+fAzbHkt5/xTHs9kz19O4ef6XEgKc5eZO3o38rZkUnuum+a0HePTYfw9HFQlOVTWQcgEOXAcSAAAIABJREFUYEIC4eFQWtHPc0SYmeL4flGXT/nxC+2/lLvvv5Gw9m1bMX9al8u2U/18XxERGRQKFeKmKgo/yCZtrr0EKmjB9YT/PqvXnoeARWlEtt9+PJ5BoWUk3l2uIefvr3H5f1zHgoQwvB3P+k9NYvkdSSy/5RS5+95l5/ad7LHUDmlLzxdG4uqVeNnKyPv9Q+x4K6ujzMk3dg3LH3mYhAh76Au5/nbiNmVRdN5VPYCRyDtfJK0jULRwetczvPXSJsqrnN9Tr6krSb1vPQsSA8EQ1XsPhC2f/b94hhkvPEx0AAQsfJgVN2bzl22WTu8bctN6ls12BNO6LN59egO13f2bq9jK/o1bOz8X/xgJ7aGiKZ/cPz6hdSouxJpNWUkLCbONYDARFRvI/or+1fx5xZodpW3QZskZgb2TIiLSG4UKcVvz7u2U3pOCyQ+ISCVx5hNU9liGEkXcIpfSpw8yRujFRSvl/9rMc//ajHdYIlcvW8rSJQuIneSIF35hJF57G4nXfo3/tGTz/q4M0ncNl9INI14+9RQ9/XW2ZHQuRWou3sSWxyMJ/83d9gvAgBTiZxsp2tvN9zNmHctXmRzfyxZOb17LKy9knldr33Z8Kzt+VEXb839g0XR7D0TqV5Io2thNzwJAxQa2vLiQux9IJYBATHc+xdzDqznUfmc7dh2r1jjG41BF0fMP8WHlxX8aQ87nGn721weY17V0rL+asnj8tsfJGpCAVEV5cRnMNgFGQuISYNcFeiQ7MRIem+D8uS/OvogxGSIiMpxp9idxX106RR3jKKIwpZp73te19MlmoSizhwvLEaT1VC47X32Oh++5k+8/uZFt/yqhtiM8eBNkWsCN9/yMF1/+NT+750YWTPUfyubaFW9iR0b3Yxso3kpuaftGICEmUzc7GYn+6s2Ed/Q4vcGWjecHig7WLPZsyuwoYwpJXUlkLxfRDRkPkr7LUSIVkMSy+9bZQ45PCqn3393xvrU7fspbu3r4OsSjThdYOr6/IdPN5w9+DzAREmMmJMZMgF/XF8OInNHeo1XFpwWWrjuIiMgIp1AhHlBF4d5s2hxbIfNWEt7DBWPAomtcSp8yXS5eR4NGyg+m86df/pA77/khT/85nZzjjc6X/SNJvP6bPPCrl3n5Fz/gtmtjCfLu+WwDqfJABj0XZVmo/LeztCUgOOz8XXxSSZjvLHsqf3vjBQd0tx3IoLw9VYQmEx3R295VFD3/044eCK/Eday4PYXoux6z93YAVLzBW89njIo73q1WwObmf+cGtoarrSDH+T2OMTt/jgF7KdxrrN34Nms3vs2tN3e5seCTxJQox2PrUSqKR2LJo4iI9EblT+IRzXu3U7rWUQI1NYV4k5HK8y4copixKNlZArF/K6dHZOlTH9SXsP/vG9n/9z8RNHMBS5ct5bovJBLmD+BN0MzFrJ65mNW35/KnR3/GtgsNWvVs4zht6f1OcXNDHWAftO3lF3j+DlFJRE1wPLaVcTSnD70FNgufnoS4AMAQRehUIxzv5eKyLoOMpzcR9cs1hBiMRN72B241OAKF1cLepx+ltNuxHiOM9T0e/+p7Q92KC6vLprwSoqcCAWbCI8BS4njNYGJGonOwfvjsFALIdw6wjzET3t57UZZDWV++bx//ibWr/+Sx5ouIyMBSqBDPqEsn9/DDmBYaARNxS8xkFncpbQpOI8Gl9Cl35wif9alPWqn9eA+bP97D5pfCSLzmOtJW3MiCCEcXRWAUYd1csw+sFpovcFHX5jobksH+i6LN5SmvyCiXqWiNRC1/mFTXHboVSGSg83FAcCDQ+7Si9mlmU7jjVhNeBmPH+I3yNx4k84JTF4tH2fIps9TDVPuA+yhTIB0LtASn2sNGO9NCoidsIM+xxodvrLnj30vD0ZzRezNBRGQMU6gQD6nCsjuLtoWpeAEh89MIf7nzDC+dSp9KMyga1LvzXZhu44n7lzK5l7p+65ENfO+3+z2z7oR3EImLr2PpksUkRwxRzVOHZtrcvB73mhDo/OVhiMK0+m66G3nRK+8el6Rz0ULlpic4fN0fmNt+I7zyDXZ0N32sDLAWygsstF2bhBdGQmYlwA77YG3f5CR7yWNlPuU+ZiKDk5mRaCRvbwv2QdozOgJhZUHe0H0JIiIyYBQqxGOaD2zH0pBqL2+Zmkp89BNUHmt/NZQZVzlLnyqzMob2bqX3eCaGBRHU2z6Xujug2rub0icXjeXk7M1gz1CGq4vkZehLILjAOfq4X9ANd5HgugxG+JdZvGwjf3lHA7QHW3NBNrW2JEIMEBSTRABZNGAkcrb9Z7shewMHA9YTuSSQyORk2JsFRBEe4/gG9mXROxERGZEUKsRz6tIpPPwYcYvsc9nHpSaRecxxRzl4OXFXtJc+5VM40he8601gDAuuW87SxQtIOm+mp1ZqLdnsfDeDd98bLlPM9l+ztZk2HL9AKjfxyppHKR+IkBizjlV3pnSZaSgQ0z3PMTf3Ng71NiZjpBgRU8o6lORQ2eBYBC/GTLgPWGzJxCQGAvWUZmdiCcijbUkKQYnXEGLI4rRPMlHtpVF12Rde9E5EREYkhQrxoHqK9mbRvCgVXyBkQRohr9jrp30XXU90R+lTJnklvZ1nEBRuZO3qjZ47n8GfyLlLSUu9mquTYvDveoHYZF8ML+OdDPaXNnZ7ipGkraqKZiAAICAMXwP2GYg8ySeF1B+vI9IxwLdh1xPs81vHsoWB9mlmH1pH6Q+e4bQWrhs81mxK2xfB8zMRFQMW60KiQwFrHqWH62n2eY9yWwrRU5OJDoXTE2d1DNJusxSM0HVpRETkQhQqxKPa9m2n1KUEKm7qE+wtCSXetfRpT2/TmY4s/hFJXP3FpSxdlExMN/PDNh7PYeeOdNIzczjVNAQNHCiWfE5bVxLgg/3iMgosxy54VD8EEnmPy/SxlVt56/kNWHzqiYp9krhg8Iq9m1X/uY9XXsrigmPEu+jYv302KemjKj5tXwTPEEW4KZQAnxT7GiIF+zhaBxiyKCmF6OlmZiSHUuST0FFmqEXvRERGL4UK8awG+yxQcYsCwWAifomZvXXJxJmdpU+5o6L0yZ/F3/tvvrskjPOiRGstxVk7Sc/4B/s/rvXMQO/hpjqToyUPEx2LvdRtqUupmwf4LlzPqhsdQ79tZRz69U+x1AG8wVvPX0PkT9MIwEj4V59kWc6XSD9U39vpOrO20GYDDICP0d7LMpSs7/GzG98b4kb03emCfJox4YuR8NgUoieY8QIqDzsWN7RZsBwuI3V6FJGzryXS1j6Ev7+L3gURMy+OyR2rKVk5acmh5IwHvxgREfEYhQrxsHosu7NoXpSGLxCekkZkdRLR7XPUWzKHdtYnj/Fn4pTOgaKxIof3d+0kY8d+ykd+hdMFWMjbkUNqbJJ9tq8b7mduxrf6PMbBy8dIm7WHfYNvZvl9KzumID297VF2HHCGhubdP+WtDDO3pkWBIYq5P1zP0f/zA0fo6IPT5TR0hAoTU2KN5B0eBWMzBklbQT6V1pVE+0BA3E3MCTECZZRmtweGFioPZNGw+mYCEm9kTpNjHmHrUUoL+vE5e8fx1e8/wIKO1blbyfl/t/P47lEZ00VERjytqC0e17YvA0v7OgjRK1mxyln6VL5n66gpfQKgtZaSrG1sfHQtd37vcTb+fSwECruGd57hUHtADEhh2S9eZG5sb4tuGPGNXcmiR97m3ke+3MMdDRNzHniYhGD7VlvJJt56ObNLeVMVlhcf5VCFYzN0JSvuu9k+vqNPDc+msv1Yoph9+92E+PV2gHTiWAQPgOkpRE8AqnM46rrYZf4++8KEoSmY2gdpl+VQOZpKAEVEpBP1VIjnNWVSmF1PwhL7Ilkh7RcVtnwK3+9P+cNw1kjx35/mh4X7O9b/GnOsWWT+8nkin7YPpvYKT2X5b/Yw50A6hQc+pLLqFG02I77BUYTEJhEzO4XoqY7Qsa+7ExoJWv0U181vv7NtYf8zT1De3YVoQyY7nt1E9C/XEGKAgEUPs2JVNn/Z0od/X7Z8PtyZz4K77GU7vrPvZ+2rKyktsFBTXeccb247Ru5LG7p//7HMlk9ZsWMRPIfmgkzKXQfMN2VxtKCFhPnOMSsNRVr0TkRkNFOokAHgKIFaktZ5KtCPMyiq6OmYkaaR4n/tH+pGDLm2wmf4y0/ga4+sIzoYMAQSvvBmwhfe3O9zecWuY9UdSY5/My1UvvEgmYU9l8u0HX6CLX9N4Y6bTXgRiOnOp1hw+Db2l1y4xKZ284PsmP0Ky9tX1JtgInqhiWjXnWxZVP5RoeJ8LZQX59G2LMW5wnl218HyVZQeyof5SR3HVBZn9+9t/Pzx6fQXqoaTZ1T6JCIyXKn8SQZE24GM82rcy0fRrE/i1Hz4Gf5819d5e1sWtQ297GhroaE4k0MbH2LDs3/vfBHql8LiB+7umD62rfB5tvz5QgO/W6j844PsaS+78Usi9cf3E+7T+1EAWPM59PANbHh6Ax8eyqe22jF4W/qkuSCf2vbPy5ZPyYHzF7RrOJjlnD7WZqGsoH9det6xicS6DFpqLUxnmxbjFhEZti6ZNm3a5+6eJCYmBoCamhpqa8fWZeNY/tpFzuMTSsgVKURNM+E/0Yh3WwtNn1VRW2ahsjib2joNiJa+ib3jRZ74Uphj6xQ713+PF46op0JEZLhS+ZOIeI61itOHtnL60FA3REa2MBJmhnVsteal81cFChGRYU3lTyIiMrwEJhIX075xivf/ls6poWyPiIhckEKFiIgMK67jKVrztqmXQkRkBFCoEBGRYeXyhFj8ATjFu397V70UIiIjgMZUiIjIsFL8ylpWvzLUrRARkf5QT4WIiIiIiLhFoUJERERERNyiUCEiIiIiIm5RqBAREREREbcoVIiIiIiIiFsUKkRERERExC0KFSIiIiIi4haFChERERERcYtChYiIiIiIuEWhQkRERERE3KJQISIiIiIiblGoEBERERERtyhUiIiIiIiIWxQqRERERETELQoVIiIiIiLiFoUKERERERFxi0KFiIiIiIi4RaFCRERERETcolAhIiIiIiJuUagQERERERG3KFSIiIiIiIhbvIa6ATJCxdzP3b9fR7gBaMjgL19bi8Xa/9OE3LWDtbeaAGjesZZfPZlBm2dbOqIErHqVe9el2H8wKzfxyppHKbf14bjVm7n3O0n24yo2seGOR6nsw3EiIiIinqCeCrk4Ffl8Wud47GciKupiThJI+PT2A1uoLM4e04ECoGH3dsrbw1l4KvGzjH04Koq4FHPHHYLTe7f2MVAEETNvAQtSnP/FTrqoZouIiMgYp54KuTjWbCr+3cKcYCMYogiPC4VjVf07hyGZqBjHRbOtjPKCfh4/GlWnk/fRw0TPNQJRxC1OZkduVu/HhKa5hI8yinbn9+29vONY+Z0HWBzofCrnt7fw+K7Wi2m5iIiIjGHqqZCLVEVZYZnjsZHw2IT+nyLUTHiw43FDPmUlnmrbSFZF4QfOHpugBdfbS8x6EbAojUgfx8bxDAotLQPZQBEREZHzqKdCLtrpgnwaMBEABJjMBJFJbT+O94o1E+K4YG4ryXeW/XjcZL7yzB+4M87d89Tw9o+/wYsfeaJNPWvevZ3Se1Iw+QERqSTOfILKwp6CQhRxi1xKnz7I0FgKERERGXTqqZCLV5xDZXsQiDAT7tPldZ9QgmLMhMSYCQruOjbASEisGV/HVm1hNs0D29qRoy6dotz2EBGFKdXc876upU82C0WZOQPePBEREZGuFCrk4jVkU9ZeARVgJmp65+DgtXA9d298m7Ub32btI2sI6PRqIFOmhzke11NZ1MdxABfFClYr2HDvP+uAdaV0UUXhXmcJVMi8lT2WQAUsusal9CmT3NJBaJ6IiIhIFyp/kotns1B+tAqmhwJhhMcFQmH7YGsjkcnJHT0RXrELiQ7YQF6D4wlDMhGXO0KINY/SgoEcB1DD3368ir8N4Dt4WvPe7ZSudZRATU0h3mSksrjrZxTFjEXJztKn/Vs53Z/Sp9b9PHfHap7zTJNFRERkDFNPhbihhcqCo4476kZCTMnOlwxmYhJDndt+yUQnuvRkRJiZMsHx2HV6WrGrSyf3cHuIMBG3pJsSqOA0ElxKn3J3DmRvj4iIiEjPFCrELc0FOR13xwNmmAlqfyE0hegI7L0ZxS1AIDHJztDhOki72ZLTvzvsY0IVlt1ZzhKo+WnnlUB1Kn0qzaDo+GC2T0RERMRJoULc49rLcJmZSD/7Q9/khfaL4OOZZO6wjw8IumKhI0gYCY81Ocp2tOhdT5oPbMfSXi42NZX4aNdXQ5lxlbP0qTIrQ8FMREREhozGVIh7rNlUWFqYM98IfiammIzk5ULk7AS8gNrc9yg/UE+lLYXIqBSig5/hdFUY4SbHStqDsujdyJpStkNdOoWHHyNukREMJuJSk8g85pjdKXg5cVe0lz7lU9jXBe9EREREBoB6KsRNVZQVt08BFUXkzDAwJDNjViBQT8mBbNoqsyg9DviYiZkdCD5moqY6DtGid72op2hvVsdUuyEL0jpKxnwXXU90R+lTJnn6DEVERGQIKVSI2+yL4NmFxCXhFX0NkaFAUzaluS1gy+dobhn2GaFS8IpKIsQxv+zALno38rXt206pSwlU3FSAUOJdS5/2ZPRr0UERERERT1P5k7ivOIdK60pMPuAbYyZ6bjLhBmgr3ue4IG6h8kAODTdGEZC4kOgCU8cd98FZ9O4kf7v/hhE1pWyHhnRyDz9M3KJAMJiIX2Jmb10ycWZn6VOuG6VPYTMXcPlE57b1ZC45pY1uNlpERETGGoUKcZ9jETzTdCAimXkL7dOfnj6U2dGD0Za7j/KmlcSFpjBvyQTHP7x6yvI1FqB39Vh2Z9G8KA1fIDwljcjqJKIdA+KxZLox61MQyV9/gLsSnM/U7nqcO3+rVblFRESkf1T+JO5rXwQPwCcJU6IRsGDJsTj3adiFJb8FDCZMsx3rV1jzqDhvQTfpqm1fhnMWqOiVrFjlLH0q37NVpU8iIiIy5BQqxANcF8FzqMqmxNLpCUoOWzofVpFPmRa9u7CmTAqz6+2PDVGETHWZ9el9S8/HiYiIiAwShQrxCNdF8ACac/dR3mXdhNoDWZ33seRQq7UV+sBRAtX16Y8zKKpw57w+jPft/EzNmVPunFBERETGKIUK8YzjOc5F8GihPDvz/AXtSt/DUuXcp7JAi971VduBDCxdenXK3Z31yT+RuGku2/X72fqPcnfOKCIiImPUJdOmTfvc3ZPExMQAUFNTQ23t2KrwHstfu4xs3vN+wMsPLcbfsV3+tx/y/Ve14IWIiIj0n3oqRMaoyxNiOwIF9fv561sKFCIiInJxFCpExqQwEmaGdWyVv/tX9tQPYXNERERkRFOoEBmLAhOJi3E8Vi+FiIiIuEmhQmQM8o5NJNbb/rhku3opRERExD1aUVtkDGo9+BxrVj831M0QERGRUUI9FSIiIiIi4haFChERERERcYtChYiIiIiIuEWhQkRERERE3KJQISIiIiIiblGoEBERERERtyhUiIiIiIiIWxQqRERERETELQoVIiIiIiLiFoUKERERERFxi0KFiIiIiIi4RaFCRERERETcolAhIiIiIiJuUagQERERERG3KFSIiIiIiIhbFCpERERERMQtChUiIiIiIuIWr6FugIhcgE8aq15/kYQJAGXsX7eMHYUtQ90qERERkQ7qqRAREREREbcoVIiIiIiIiFsUKkRERERExC0KFSIiIiIi4hYN1Ba3BKx6lXvXpdj/IVVu4pU1j1Ju68Nxqzdz73eS7MdVbGLDHY9S2YfjRj2/Ndy69TFMhp52iGLB80Us6Pa1FvLWX8mW3RrELSIiIoNLPRXilobd2ym3OjbCU4mfZezDUVHEpZg7Eu3pvVsVKIZEEDHzFrAgxflf7KShbpOIiIiMROqpEPdUp5P30cNEzzUCUcQtTmZHblbvx4SmuYSPMop25w90K0cOax65r22g0vUnc1wUplVphPsA1FO+4w1KT3d3cAuflvSjl8I7jpXfeYDFgc6ncn57C4/var2opouIiMjYpVAhbqqi8INs0ubaS6CCFlxP+O+zeu15CFiURqSPY+N4BoUWlet0sOWQ98eczs/5pBGU1h4q6ijf+gyZWqdCREREhhGFCnFb8+7tlN6TgskPiEglceYTVPZ40RtF3CKX0qcPMgah9GkyX3nmD9wZ5+55anj7x9/gxY880SYRERGR0UNjKsR9dekU5baHiChMqeae93UtfbJZKMrM6XlfERERERkRFCrEA6oo3JtNm2MrZN5KwnuYvShg0TUupU+Z5JYOQvOwgtUKNtz7z2o9/9QiIiIiovIn8YzmvdspXesogZqaQrzJSGVx1xKoKGYsSnaWPu3fyulBmfWphr/9eBV/G4y3Gkla9/PcHat5bqjbISIiIiOeeirEM+rSyT3cHiJMxC3ppgQqOI0El9Kn3J2a9UlERERkNFCoEA+pwrI7y1kCNT/tvBKoTqVPpRkUHR/M9omIiIjIQFGoEI9pPrAdS4NjY2oq8dGur4Yy4ypn6VNlVsYglT6JiIiIyEDTmArxnLp0Cg8/RtwiIxhMxKUmkXnMMbtT8HLirmgvfcqncFAXvNOUsiIiIiIDST0V4kH1FO3NotmxFbIgjRBHCZTvouuJ7ih9yiSvZCjaJyIiIiIDQaFCPKpt33ZKXUqg4qYChBLvWvq0J4PaoWneiNXquqH+RRERERlmdHkintWQTu7hh4lbFAgGE/FLzOytSybO7Cx9yh3U0ieAk/zt/htG7pSythZsHUtkTMAY4LlTh81cwOUTndvWk7nklDZ67g1ERERkTFCoEA+rx7I7i+ZFafgC4SlpRFYnEe3neNmSqVmf+stWxmfVQChAIFNMJtjniWAWRPLXH+CuBOcztbse587fapVzERER6R+VP4nHte3LcM4CFb2SFaucpU/le7aq9Knfyii3VHVshd9wPwkRxiFsj4iIiEhn6qkQz2vKpDC7noQlgWCIImSq43lbPoXvW4a0aSNTC6Xp6ZxOW2Mf+B6ayqqNe1j4UTafnq7DZnPuV7n1CT481nUlcxEREZGBpVAhA8BRArXEXgLV4eMMiiqGqk0jXOEzvPVmMrfearZ/pj6hhM9NI7zTTi3kZT/Bh8f6elIfxvt2fqbmzCkPNFZERETGGpU/yYBoO5CBpa7zc+Wa9ckN9ZRvXM2L9z/B/t05VFbW0+bu4oH+icRNc32L/Wz9R7mbJxUREZGxSD0VMjCatrLlK1vZMtTtGFVaaDi8gR2HN3jkbN6zEon1dm6Xv/tX9tR75NQiIiIyxqinQmSMujwhFv/2jfr9/PUtrUgoIiIiF0ehQmRMCiNhZljHlnopRERExB0KFSJjUWAicTGOx+qlEBERETcpVIiMQd6xzvEUJdvVSyEiIiLu0UBtkTGo9eBzrFn93FA3Q0REREYJ9VSIiIiIiIhbFCpERERERMQtChUiIiIiIuIWhQoREREREXGLQoWIiIiIiLhFoUJERERERNyiKWXdVFKiRcNEREREZGxTT4WIiIiIiLhFoUJERERERNyiUCEiIiIiIm5RqBAREREREbcoVIiIiIiIiFsUKkRERERExC0KFSIiIiIi4hatU+FJoT/gjUXXE3wOrLZGGporOV5XwIcVb7HtRBkNQ90+EREREZEBoJ6KgTAOfLz9Cb50OrMjV3DHF17i5fnXEz7U7RIRERERGQCGoKCgn7l7kokTJwLQ3NxMc3Ozu6cbwQz4tFVxrOYYnzQ1c4lPMMFeBgD8AhMJq3+H3Z+1DnEbRUREREQ8S+VPnnT2A14r/MC5bYjnjsVPcttEH8Cf2VNm43PiA6xD1kAREREREc9T+dNAshWytexYx2bApSaVQImIiIjIqKNQMcAaGiqdA7SN/gTrExcRERGRUUaXuAPM2tbgLHe6xGcomyIiIiIiMiAUKgaZYoWIiIiIjDYKFSIiIiIi4haFChERERERcYtCxWC6ZKgbICIiIiLieQoVA+2cFes5x2NDAD4KFiIiIiIyyihUDLSWBqrbHxvCmeo3lI0REREREfE8hYqB1lzIJy2Ox+OmszRq+pA2R0RERETE0xQqBtq5I2wrPdaxVsXUmT/h6fjrmX3pRHz06YuIiIjIKHDJtGnTPnf3JDExMQDU1NRQW1vrdqNGnXHhLDL/iHsvjz9/Re1zlWzbcwe/qe72SBERERGRYU/3ygfDuUr2fryBVz85RsO5C+8uIiIiIjKSeA11A8aEgBU8vug7zG8fpN1WScGpQj45W01jWw0fNg1p60RERERE3KJQMeAmstz8TWegqN/OIx88x4HmIW2UiIiIiIjHqPxpoHnNZn6Yv2Ojkb2FGxQoRERERGRUUagYaH5TCW//lM9Z+PBM45A2R0RERETE0xQqBpq3PwHtj1urqW4dysaIiIiIiHieQsVAuwTnehTnrB3rVYiIiIiIjBYKFSIiIiIi4haFChERERERcYtChYiIiIiIuEWhYsD5dNrSmAoRERERGW0UKgaYj5ePM1bYNFBbREREREYfhYoBFnxpuHNKWWs11eeGsjUiIiIiIp6nUDGQvOJZOTW+Y7Phs2NUD2FzREREREQGgtdQN2BUGX8Vt8XEc+k4H4J9p2IKvZKpxvYXazhQcUTlTyIiIiIy6ihUeJL/PFbOvJ7g816wUvnJBn5/UpFCREREREYfhYoBYm1rpKGpkuN1Bfyr/C22fVqmXgoRERERGZUumTZt2ufuniQmJgaAmpoaamtr3W6UiIiIiIiMHBqoLSIiIiIiblGoEBERERERtyhUiIiIiIiIWxQqRERERETELQoVIiIiIiLiFoUKERERERFxi0KFiIiIiIi4RaFCRERERETcolAhIiIiIiJuUagQERERERG3KFSIiIiIiIhZAL9XAAAQXElEQVRbFCpERERERMQtChUiIiIiIuIWhQoREREREXGLQoWIiIiIiLjFa6gbIENs3Fy++417ucoPOFfFO3//Ia9WDXWjRERERGQkUU+FiIiIiIi4RaFCRERERETcolAhIiIiIiJuUagQERERERG3XDJt2rTP3T1JTEwMADU1NdTW1rrdqBFvnImvf+3/ckMQQCsH/7mWX5W0AuOJNi3nhti5zJgUSpjRG2xnqf2slPxPsvmgOIvDdWd7Pq/3ZcyLW8qi6FlMm+g4/vNWaj87QemJQ2TmvsvB2t6OX8KP/vNbzL6oKOn6dXT9evs32HvGgv/msStDAThr+Q1rdx6im7M6Xbqcx265hRnjgHMF/PF/nuKfTYDhMuYlpJE6fRYzg0IZb4DWtjpOnTlKfsk+3rMcorTpwu0cH7yQL115NfMuiyZs/Hi8Pz9LbW0ph4sz2JJ/hKpz/f2sLkLM/dz9+3WEG4CGDP7ytbVYrP0/TchdO1h7qwmA5h1r+dWTGbR5tqUiIiIi59HsT4PFx8SXl32PmyIndH5+3HiCgmdxVfAs5gc2cte7+7q5wPYmwnQ7301ZQrTf+a8FBU1jdtA0ZsddR37O7/hVdgG9RItRwTv4OtZ98RbmTfDu/LzPBCKmzLX/Z/sejxfU9XKW8UTP+jY/uupKgsZ1fj5o0iyuSZnF/OjN/Pwf2yi1DcRX4aIin0/rIDwY8DMRFQWWY/09SSDh06Mcj1uoLM6+QKAIImZeHJNdPsKa4v0Un+nv+4qIiMhYp1AxGMZdxheX3c9NkeM7P3+OPhSgeROdeB8/SZmF69FnG05w6uxZMEwgbGIo48cB4yZgnnsfPzE8y6MHCs4PJ7ZSPsjZRuklnds274q5RBgAznK0eDf5Dd31G7RSUd1rf8Lg8VvIuuW3My/A5bn23oR+9MIETV3DD5IcgaK1jlONjbQagoi41PlJj79sNd+dV8DD+y2996a4y5pNxb9bmBNsBEMU4XGhcKyfc/sakomKMdof28ooL7jA8d5xrPzOAywOdD6V89tbeHzXMPk+i4iIyIihUDEIxsfcYg8U5+o4WpTO2wWHyK+p4uw58Pa5jJlT53JN4nXM6e7YqNv5wQJnoDhbtZv/2fM671W59EX4TOOaL9zJHbOm4Y030Vd+i6+X/5g/nuhycXjuEz7I/qTzc+PmEho3lwg/4FwjH+e/zpvDep0KH8xzb7UHiqZP+OBIOv/89xFKPztLKzD+UhPmaQv54hUpvZ9mXBDz5yzE+/MTHNzzZ14pKqDWEUzGT7qOO5bdwlWOXpCI+OXMz/4NHwzotXYVZYVlMNcEGAmPTYB3Mvt3ilCzvacDoCGfshJPt1FERESkewoVA84bc8wsaP2EdzKe5NUTnQuTWq0nyLdsI9/yLtHB/p3vhhtmcdNVSwhz3H0/++lmfv5ON6U41k94b8+T1F6ynh/Fh8K4UFKTr+OdE+kM63xwMcaZmDcNWmv38fw7v+NgQ+eXz35m4WCehYOFO4kO6K0IzBtvw1kOZz7Jrz7uXCJ19sy7vLQjhOivLCdiHOAzi9nh3nxQNrB38E8X5NOAiQAgwGQmiEz6M0LJK9ZMiMH+uK0kn/KLGJMhIiIicjE0+9NgGNdK/oHfnBcoOjtLaXXnCDB+ehqL2odg2Cxs2d1bbf9ZDh/KIN9x3esdvpCrJvS07wj3+Se88+7L5wWKTmwnKK27QAioSufVj7sfc9F65n0+6BhbMJ6IkNCLaWn/FOdQ2R4EIsyE+3R53SeUoBgzITFmgoKNXV40EhJrxtexVVuYTfPAtlZERESkg0LFYGjI4p3C/vYZjGf+5S5lT8ffJbO3MccAZw9y8KTjQnrcZZjDx/e+/wh19ng6b59xv9egtOQQFT2+WkVFjTMEBgUEuf1+F9SQTVmZ43GAmajpnYOD18L13L3xbdZufJu1j6whoNOrgUyZHuZ4XE9lUf7At1dERETEQeVPg+BsRTb5/Z09aFw0M0Od0/KUlPdlRqc6KmrPQuQEwJvQSZcBln6+8XDXyselRzwwu9VZKqp7C3qt1LY0giPW+XiNxxsGdrC2zUL50SqYHgqEER4XCB1h1EhkcnJHT4RX7EKiAzaQ195bY0gm4nJHCLHmUVrQcuH3a93Pc3es5jnPfhUiIiIyBilUDIKK06X9vxg1XkZo+xUkrQRNWc7XA3o7wM5/kjOIBPgFDfyF8GA7V0XFGU9MmNtIo/UCn4zr+hSD0qfXQmXBUdrSQvHCSIgpGciwv2QwE5PoUoLll0x0opG8fY7wEGFmSnu5m2N6WhEREZHBolAx4FppbL6Ii2DjBPw7NryJMC0nop+n8DZ4X3inEecstU0X3uuCzkHrMFwVrrkgh9O2FMINEDDDTBAZ9sHaoSlER2DvzbBEERkbSExyMuzLAjoP0m625HB6oNfVEBEREXGhMRWDoPViLvDGwWiMBO6z0ur2GvDDmGsvw2VmIh2LHfomL7Svtn08k8wd9kXtgq5Y6AgSRsJjTY47BH1Z9E5ERETEs9RTMVy1tjrLls59wptv/pS/j5aSFkXZnlmzqbC0MGe+EfxMTDEZycuFyNkJeAG1ue9RfqCeSlsKkVEpRAc/w+mqMMJNjpW0+7LonYiIiIiH6fJuuDpbRW1HD8d4grrOIDqsdB6b4H1JD7s5+Ht1nStVnKooK26fAiqKyJlhYEhmxqxAoJ6SA9m0VWZRehzwMRMzOxB8zERNdRyiRe9ERERkCChUDFe2TyitdzweF0pEyEAtOtG/QNDTOTpKksb54NNr/9d4wi4drQtoeIZ9ETy7kLgkvKKvITIUaMqmNLcFbPkczS3DPiNUCl5RSYQ4BvFr0TsREREZCgoVw9YJPjzhLGOZaUphYJZfa3WO+Rjnj7/PRYzkONdIbcdKa+MJvbSX9TG8ZzFjUv/fYkxxWQTPN8ZM9Nxkwg3QVryP0gaAFioP5NAABCQuJNrsHKTd30XvwmYuYMEXnP8lRftf+CARERGRLhQqhrGjRfsodUxr6j1lOd+Y3o87/Abvvg30PlfLqY7ZlMYTEXox0aWKU5+193h4ExN1JT3FilDTUub4XcRbjCWui+BFJDNvoRmA04cyO3ow2nL3Ud4EhKYwb8kMx+Coesry+7PoXRDJX3+AB37k/O+7N8R66qsQERGRMUShYjirTmfL0fbR2ROYt+Qh7jFd1mtY8B5v4pr59/H0V2/H3Kfv7gmOVjlHgEfPWs01l/a3t+Is+Z9+0rE1PvpGVk05P1Z4T7qRe+bN6jFwiEP7IngAPkmYEo2ABUuOy0KGDbuw5LeAwYRptiMIWvOoKO7DonciIiIiHqbZn4a1sxzMepl/Tr6XLwZ5g/dlXLN0PbMTj3Dg3x9xtLaW2lYY7xdE2MTpzLxsFubJoYwfB5zd1+d3+bgoi4q45USMAwLmcs/Nz/DFE0epaGh0mb61lY/z/8x71d2fo+rYIfKTTZi9AcNl3LB8PRFF73Pg5AlaDUFETE4mJXYWYZfUcfQUzAjTuIqeuS6C51CVTUmnxdGrKDlsgblm51MV+ZSNlhnCREREZERRqBjurEf441u/g7Q7+WLoeMCboLC5fDFsLl/00Fu0Vm3mpZwZPDjXZO9FMEwgOmou0Z33wr/8dd6r7mEV6oZ3efOjhfwkeZq9J8U7lNmJq5md2PkcpR/+jjfHfYtHwjzU+FHKdRE8gObcfZR3We+k9kAWp+/ovOhdbb/WRPFhvG/nZ2rOnLrYJov8//buJTauswwD8DsZj8eOW8dJ5RQFmZGrlBSaqAjUDRKIChYsQMCqYgMLBOquLLKoAKFKXFRVVF2wYYOEXIFYVIgCReWmRrQJEWkoEWkE2FLcOpS2IbYzDbbHzmRY1I4rpQ1pzsyxYj/P6hydM+f7l/Pqv3wAbGGWP90IFp7Lj37+QB4+8qdMXnibP/Vrr56fyrG//TSPPjmRv1661gIrmTz+rRz8xWN5cupU/vX6Qlau+bdv+sZzj+TR56cy/1a/XX45hw8/lG//+VQcTnQNXvrLehO8tHLm+NNXNrSbPpSps+vvvHLqHTa9GzqQOxpvum8ezRO/PnNdwwUAtrZKo9Eo3J94fHw8STI3N5f5+fnCg+Jqahm55f25c/eejG7fnv5Kstw6n/kLL2f67HSmLyxs9ABT2743Hxi7PeM3b0/aC5mfn8zzL03l7PV0Fqdnand/NT984CNZO+/pzM8O5v4fa3IBALxzlj/dcFYyf+5EDp87sdEDeVsrC1M59o+pHNvogXBVt+3fdzlQpHk0j/9SoAAAro/lT7Al7c7+965vbDnz+8fzTPMqrwMAXIVQAVvR8IHcMb56bZYCAChIqIAtqLbvQPattiM5/RuzFABAMTZqAwAAhZipAAAAChEqAACAQoQKAACgEKECAAAoRKgAAAAKESoAAIBChAoAAKCQrvSpAAAAti4zFQAAQCFCBQAAUIhQAQAAFCJUAAAAhQgVAABAIUIFAABQiFABAAAU0tftD9Y/OJdnv9vMaLuS1tK2NGdrmTxdz5FnhzLxx1qa3S4IAABsqK6HisuqndSH2hkdamd0bCkf/mgzX/zYLfn8d4Yy1e5ZVQAAoGTVkZGRB7v5wXalkh3Ltfz9n/VMn62mb/hidg2+8WxorJXdL96cX71Y6WZJAABgA1UajUanpxUGl/P1R17Jl297o0zz0O7c/dBgWj0tCgAAlKX3G7UX+zPxu4HLt8PvWcneas+rAgAAJSnl9KfX/t23vkF7qJ0dZRQFAABKUc6RssuV9eVO/Um9lKIAAEAZygkVTnsCAIBNS/M7AACgEKECAAAoZANCRceeCgAA2ETKCRWtSpbWrgc6qTtSFgAANo1SQkWrWU1zbbN2/8XcfmsZVQEAgDKUM1Pxan9Ozq5eV1v55CdWLIECAIBNojoyMvJgz6t0+jI7spTP7m+nL8mu9y3lQ4PVzM5VM/t6Ja1Oz0cAAAD0SKXRaJTzl77azme+ci7f+NRiRq/YU1HLxME9+ebJUkYCAAB0UXmnP7WreeInI/n+bwfW91cAAAA3vL6yCtXH/psfPHwu9+xcnRhZrOWFEwM5+eq2tJarOXK2rJEAAADdVFKouJR7vzS7HihmhnPf13bmKUECAABueOUsfxpcyj13XVq9qeapx0YECgAA2CTKCRW3XsxY/+p1u57jJyqllAUAAHqvlFBRv+nSehftpWpmFsuoCgAAlKGcmYpqJwNr18uVtJz+BAAAm0Z5R8oCAACbklABAAAUIlQAAACFlLSnopQqAADABignVAx0Ul+7Xq6kVUpRAACgDKWEirF3r2R47eZ8Na85/QkAADaN3oeKweV84ePrcxPNmVpmel4UAAAoS1/Xv7hnMQc/3crwtk527LyYO+9azN4dncvlnn6mbvkTAABsIl0PFfV3LeXezzUzesWTSmb+sCvfO1rpdkkAAGADdX+m4rJKWovb0vxPLZOn6zly6KZMHOlLs3cFAQCADVBpNBqd//8aAADAW9P8DgAAKESoAAAAChEqAACAQoQKAACgEKECAAAoRKgAAAAKESoAAIBChAoAAKAQoQIAAChEqAAAAAoRKgAAgEL+B2oWfLxeGJpjAAAAAElFTkSuQmCC;" vertex="1" parent="1">
          <mxGeometry x="50" y="60" width="173.26" height="130" as="geometry" />
        </mxCell>
      </root>
    </mxGraphModel>
  </diagram>
</mxfile>
